<svg width="17" height="9" viewBox="0 0 17 9" fill="none" xmlns="http://www.w3.org/2000/svg">
<path d="M0.21967 1.28033C-0.0732233 0.987437 -0.0732233 0.512563 0.21967 0.21967C0.512563 -0.0732233 0.987437 -0.0732233 1.28033 0.21967L8.70495 7.64429C8.99784 7.93718 8.99784 8.41206 8.70495 8.70495C8.41206 8.99784 7.93718 8.99784 7.64429 8.70495L0.21967 1.28033Z" fill="white"/>
<path d="M15.0689 0.21967C15.3618 -0.0732233 15.8367 -0.0732233 16.1296 0.21967C16.4225 0.512563 16.4225 0.987437 16.1296 1.28033L8.70495 8.70495C8.41206 8.99784 7.93718 8.99784 7.64429 8.70495C7.3514 8.41206 7.3514 7.93718 7.64429 7.64429L15.0689 0.21967Z" fill="white"/>
</svg>
