<svg width="140" height="140" viewBox="0 0 140 140" fill="none" xmlns="http://www.w3.org/2000/svg">
<g clip-path="url(#clip0)">
<path d="M134.035 69.4991L133.931 69.5029C130.756 69.6224 128.015 71.8537 127.266 74.9293L125.069 83.9514C122.982 92.5195 117.241 99.6552 109.319 103.528C108.389 103.983 107.339 103.883 106.511 103.261C105.683 102.639 105.296 101.658 105.474 100.638L107.208 90.7039C107.731 87.7106 105.806 84.898 102.826 84.3008C100.565 83.8483 98.2999 84.8102 97.0563 86.753L85.8306 104.289C84.2234 103.13 81.9637 103.269 80.5183 104.713L72.3756 112.856C71.5747 113.657 71.5747 114.956 72.3756 115.757L96.0186 139.4C96.4192 139.8 96.9442 140 97.4689 140C97.9937 140 98.5187 139.8 98.9193 139.4L107.062 131.257C108.585 129.734 108.659 127.305 107.289 125.69C109.901 124.237 112.451 122.572 114.87 120.737C115.772 120.052 115.948 118.766 115.264 117.864C114.58 116.962 113.293 116.785 112.39 117.47C108.232 120.624 104.747 122.391 104.288 122.664L88.8321 107.208L100.511 88.9648C100.836 88.4565 101.429 88.2063 102.02 88.3228C102.8 88.4792 103.304 89.2153 103.167 89.9987L101.433 99.9327C100.991 102.464 101.993 104.996 104.047 106.54C106.102 108.084 108.812 108.341 111.12 107.213C120.141 102.803 126.678 94.6783 129.054 84.9221L131.251 75.9C131.958 72.995 136.137 72.8599 135.89 75.4056C134.541 89.3211 128.321 102.413 118.378 112.27C117.574 113.068 117.569 114.366 118.366 115.171C119.163 115.975 120.461 115.981 121.266 115.183C131.887 104.654 138.531 90.6675 139.972 75.8013C140.307 72.3579 137.538 69.375 134.035 69.4991ZM97.4689 135.049L76.7276 114.308L83.4369 107.614L104.161 128.356L97.4689 135.049Z" fill="black"/>
<path d="M43.3673 34.5896L46.094 36.1006C46.1167 36.1135 46.1356 36.1318 46.1487 36.1545L50.4149 43.5433C50.428 43.5657 50.4346 43.5914 50.434 43.6174L50.3796 46.7349C50.3528 48.2765 51.1655 49.7132 52.5009 50.4842L58.6803 54.0515C59.3369 54.431 60.0699 54.6203 60.8025 54.6203C61.5596 54.6203 62.3162 54.4182 62.9878 54.0143L65.6615 52.4079C65.6831 52.395 65.7082 52.3882 65.7342 52.3882H74.2666C74.2925 52.3882 74.318 52.395 74.3401 52.4084L77.013 54.0146C78.335 54.8087 79.9858 54.8232 81.3201 54.0518L87.4996 50.4842C88.835 49.7134 89.6474 48.2768 89.6209 46.7349L89.5667 43.6174C89.5662 43.5914 89.5728 43.566 89.5856 43.5436L93.8523 36.1542C93.8652 36.1318 93.8841 36.1135 93.9059 36.1012L96.6332 34.5896C97.9818 33.8423 98.8196 32.4199 98.8196 30.878V23.7426C98.8196 22.201 97.9821 20.7788 96.6332 20.031L93.9067 18.5199C93.8841 18.5071 93.8652 18.4888 93.8518 18.4658L93.6054 18.039C93.0391 17.0584 91.7843 16.7224 90.8041 17.2889C89.8232 17.8552 89.4875 19.1095 90.054 20.0903L90.2998 20.5166C90.6846 21.1832 91.2437 21.7328 91.9178 22.1066L94.6445 23.6179C94.6899 23.6433 94.7183 23.6909 94.7183 23.7426V30.878C94.7183 30.9296 94.6902 30.9772 94.645 31.0024L91.9169 32.5145C91.2437 32.8877 90.6846 33.4376 90.3001 34.1037L86.0334 41.4931C85.6487 42.16 85.4523 42.9193 85.4657 43.6888L85.5199 46.8062C85.521 46.8579 85.4936 46.906 85.4488 46.932L79.2691 50.4998C79.2245 50.5253 79.1687 50.5247 79.1253 50.4985L76.4527 48.8926C75.7926 48.4961 75.0368 48.2864 74.2668 48.2864H65.7345C64.9639 48.2864 64.2079 48.4961 63.5489 48.8926L60.8758 50.4985C60.8317 50.525 60.7765 50.5255 60.7319 50.4996L54.5525 46.9323C54.5077 46.906 54.4801 46.8582 54.4812 46.8062L54.5356 43.6888C54.549 42.9193 54.3526 42.16 53.9676 41.4928L49.7015 34.104C49.3167 33.4373 48.7576 32.8877 48.0835 32.5139L45.3563 31.0024C45.3112 30.9775 45.283 30.9296 45.283 30.878V23.7426C45.283 23.6909 45.3114 23.6431 45.356 23.6182L48.0844 22.1061C48.7576 21.7328 49.3167 21.183 49.7012 20.5169L53.9679 13.1275C54.3526 12.4606 54.549 11.7012 54.5356 10.9318L54.4812 7.81432C54.4801 7.76291 54.5074 7.71479 54.5522 7.68881L60.7322 4.12072C60.7771 4.09502 60.8317 4.09557 60.876 4.12237L63.5492 5.72854C64.209 6.12475 64.9648 6.33448 65.7345 6.33448H74.2668C75.036 6.33448 75.7915 6.12502 76.4524 5.72826L79.1253 4.12237C79.1696 4.09557 79.2245 4.09502 79.2694 4.121L85.4493 7.68909C85.4936 7.71479 85.521 7.76291 85.5199 7.81432L85.4657 10.9321C85.4545 11.5768 85.5981 12.2323 85.8811 12.827C86.3678 13.8496 87.5917 14.2847 88.6138 13.7985C89.6367 13.3121 90.0715 12.0884 89.5853 11.0658C89.5714 11.0368 89.5667 11.0138 89.567 11.0034L89.6212 7.88596C89.648 6.34377 88.835 4.90713 87.4998 4.13686L81.3201 0.568772C79.9849 -0.202596 78.3339 -0.18865 77.0124 0.606232L74.3407 2.21158C74.318 2.22526 74.2923 2.23237 74.2666 2.23237H65.7342C65.7082 2.23237 65.6828 2.22526 65.6606 2.21213L62.9883 0.606506C61.6674 -0.18783 60.0161 -0.202869 58.6806 0.568498L52.5012 4.13604C51.1657 4.90686 50.3531 6.3435 50.3796 7.88541L50.434 11.0029C50.4346 11.0289 50.428 11.0543 50.4151 11.0767L46.1484 18.4661C46.1356 18.4885 46.1167 18.5068 46.0948 18.5191L43.3665 20.031C42.0184 20.7788 41.1812 22.2012 41.1812 23.7423V30.8777C41.1812 32.4199 42.0187 33.842 43.3673 34.5896Z" fill="black"/>
<path d="M70 14.9078C63.1613 14.9078 57.5977 20.4717 57.5977 27.3104C57.5977 34.1491 63.1616 39.7127 70 39.7127C76.8389 39.7127 82.4025 34.1488 82.4025 27.3104C82.4028 20.4715 76.8389 14.9078 70 14.9078V14.9078ZM70 35.6114C65.4229 35.6114 61.6992 31.8878 61.6992 27.3107C61.6992 22.7336 65.4229 19.0094 70 19.0094C74.577 19.0094 78.301 22.7333 78.301 27.3104C78.301 31.8875 74.577 35.6114 70 35.6114Z" fill="black"/>
<path d="M107.31 67.5801C112.398 67.5801 116.538 63.4402 116.538 58.3518C116.538 53.2634 112.398 49.1236 107.31 49.1236C102.222 49.1236 98.0815 53.2634 98.0815 58.3518C98.0815 63.4402 102.222 67.5801 107.31 67.5801ZM107.31 53.2252C110.137 53.2252 112.437 55.525 112.437 58.3518C112.437 61.1786 110.137 63.4785 107.31 63.4785C104.483 63.4785 102.183 61.1786 102.183 58.3518C102.183 55.525 104.483 53.2252 107.31 53.2252Z" fill="black"/>
<path d="M93.0774 44.8943L93.1126 46.9088L90.3014 51.7779L88.5402 52.7543C87.4049 53.3829 86.6997 54.58 86.6997 55.8781V60.8254C86.6997 62.1228 87.4046 63.3199 88.5397 63.9491L90.3014 64.9258L93.1126 69.7947L93.0774 71.8093C93.0549 73.1065 93.7388 74.3157 94.8624 74.9645L99.1471 77.4381C99.6997 77.7572 100.316 77.9163 100.933 77.9163C101.57 77.9163 102.207 77.7462 102.772 77.4066L104.499 76.3689H110.121L111.848 77.4066C112.96 78.0746 114.349 78.0869 115.473 77.4381L119.757 74.9645C120.881 74.3159 121.565 73.1071 121.543 71.8093L121.507 69.7947L124.319 64.9258L126.081 63.9488C127.216 63.3194 127.921 62.1225 127.921 60.8254V55.8781C127.921 54.5803 127.216 53.3835 126.081 52.7546L124.319 51.7776L121.507 46.9088L121.543 44.8943C121.565 43.5966 120.881 42.3877 119.758 41.7391L115.473 39.2654C114.35 38.6165 112.961 38.6293 111.848 39.2971L110.121 40.3348H104.499L102.772 39.2971C101.66 38.6291 100.271 38.6168 99.1469 39.2654L94.8621 41.7394C93.7388 42.388 93.0549 43.5972 93.0774 44.8943V44.8943ZM97.1836 45.135L100.927 42.9737L102.513 43.9266C103.068 44.2602 103.704 44.4363 104.352 44.4363H110.268C110.916 44.4363 111.552 44.26 112.108 43.9264L113.693 42.9737L117.437 45.135L117.404 46.9845C117.393 47.6331 117.559 48.2727 117.882 48.8324L120.84 53.9547C121.164 54.5163 121.634 54.9793 122.201 55.2934L123.819 56.1903V60.5131L122.201 61.41C121.634 61.7244 121.163 62.1876 120.84 62.7476L117.882 67.8705C117.558 68.4318 117.393 69.0709 117.404 69.7192L117.436 71.5687L113.693 73.7297L112.107 72.777C111.552 72.4434 110.916 72.2673 110.268 72.2673H104.352C103.704 72.2673 103.069 72.4437 102.512 72.7773L100.927 73.7297L97.1836 71.5687L97.2158 69.7192C97.2271 69.0709 97.0619 68.4318 96.7379 67.871L93.7804 62.7487C93.4566 62.1871 92.9858 61.7242 92.4187 61.41L90.801 60.5134V56.1906L92.417 55.2948C92.9847 54.9809 93.4564 54.5174 93.7798 53.9561L96.7371 48.834C97.0616 48.2729 97.2271 47.6334 97.2158 46.9848L97.1836 45.135Z" fill="black"/>
<path d="M32.6902 67.5801C37.7786 67.5801 41.9184 63.4402 41.9184 58.3518C41.9184 53.2634 37.7786 49.1236 32.6902 49.1236C27.6018 49.1236 23.4619 53.2634 23.4619 58.3518C23.4619 63.4402 27.6018 67.5801 32.6902 67.5801ZM32.6902 53.2252C35.517 53.2252 37.8168 55.525 37.8168 58.3518C37.8168 61.1786 35.517 63.4785 32.6902 63.4785C29.8634 63.4785 27.5635 61.1786 27.5635 58.3518C27.5635 55.525 29.8634 53.2252 32.6902 53.2252Z" fill="black"/>
<path d="M13.9191 63.9488L15.6814 64.9255L18.4923 69.7944L18.4568 71.8091C18.4343 73.1065 19.1185 74.3157 20.242 74.9643L24.5262 77.4375C25.6493 78.0866 27.0386 78.0746 28.1518 77.4063L29.8785 76.3686H35.5007L37.2277 77.4063C37.7932 77.7459 38.4297 77.916 39.0674 77.916C39.6837 77.916 40.3003 77.7569 40.8527 77.4378L45.1369 74.9643C46.2607 74.3157 46.9448 73.1065 46.9224 71.8088L46.8869 69.7944L49.6978 64.9255L51.4607 63.9486C52.5951 63.3191 53.3003 62.1223 53.3003 60.8251V55.8778C53.3003 54.58 52.5952 53.3832 51.4604 52.7543L49.6981 51.7773L46.8869 46.9085L46.9224 44.8941C46.9448 43.5966 46.2607 42.3875 45.1371 41.7389L40.8529 39.2654C39.7296 38.6159 38.3406 38.6285 37.228 39.2968L35.5007 40.3345H29.8785L28.1512 39.2965C27.0386 38.6282 25.6498 38.6168 24.5265 39.2651L20.2423 41.7389C19.1185 42.3875 18.4343 43.5966 18.4568 44.8943L18.4923 46.9085L15.6814 51.7773L13.9193 52.754C12.7843 53.3832 12.0791 54.58 12.0791 55.8778V60.8251C12.0791 62.1225 12.784 63.3194 13.9191 63.9488V63.9488ZM16.1807 56.1903L17.7967 55.2945C18.3638 54.9809 18.8352 54.518 19.1598 53.9558L22.1181 48.8321C22.4418 48.271 22.607 47.632 22.5958 46.9842L22.5632 45.1352L26.3069 42.9737L27.892 43.9261C28.4473 44.26 29.0834 44.4363 29.7317 44.4363H35.648C36.2961 44.4363 36.9321 44.2597 37.4872 43.9264L39.0731 42.9737L42.8165 45.1352L42.7839 46.9845C42.7727 47.632 42.9379 48.271 43.2619 48.8324L46.2202 53.9563C46.5448 54.5182 47.0159 54.9809 47.583 55.2948L49.1991 56.1906V60.5134L47.5814 61.41C47.0148 61.7239 46.544 62.1865 46.22 62.7479L43.2614 67.8724C42.9376 68.4337 42.7727 69.0722 42.7839 69.7197L42.8165 71.5687L39.0728 73.73L37.4877 72.7778C36.9324 72.444 36.2964 72.2676 35.648 72.2676H29.7317C29.0836 72.2676 28.4476 72.4443 27.8925 72.7776L26.3069 73.73L22.5632 71.5687L22.5958 69.7195C22.607 69.0722 22.4421 68.4337 22.1178 67.8713L19.1595 62.7473C18.8355 62.1865 18.3649 61.7241 17.798 61.41L16.1804 60.5134V56.1903H16.1807Z" fill="black"/>
<path d="M59.4816 104.713C58.0362 103.268 55.7765 103.13 54.1693 104.288L42.9436 86.7527C41.7003 84.8102 39.434 83.8461 37.1735 84.3008C34.1941 84.8977 32.2691 87.7103 32.7919 90.7036L34.5261 100.638C34.7041 101.658 34.3164 102.638 33.4884 103.26C32.661 103.882 31.6107 103.982 30.6805 103.528C22.7582 99.6543 17.0176 92.5187 14.931 83.9511L12.7337 74.929C11.9847 71.8534 9.24377 69.6221 6.06698 69.5026L5.96635 69.4988C2.48987 69.3657 -0.307944 72.3385 0.0272906 75.801C2.06413 96.8037 14.2786 115.437 32.7115 125.689C31.3411 127.303 31.4144 129.733 32.938 131.257L41.0807 139.4C41.4812 139.8 42.006 140 42.531 140C43.0557 140 43.5807 139.8 43.981 139.4L53.0815 130.3C53.8824 129.498 53.8824 128.2 53.0815 127.399C52.2806 126.599 50.9824 126.598 50.1812 127.399L42.5326 135.048L35.8386 128.339L56.5813 107.614L63.2742 114.307L55.9789 121.601C55.178 122.403 55.178 123.701 55.9789 124.502C56.7801 125.302 58.0786 125.303 58.879 124.502L67.624 115.757C68.0088 115.372 68.2248 114.851 68.2248 114.307C68.2248 113.763 68.0088 113.241 67.6243 112.856L59.4816 104.713ZM4.10971 75.4053C4.0121 74.3977 4.83678 73.5522 5.81323 73.5982C5.84057 73.5993 5.94229 73.6028 5.91495 73.602C7.28788 73.6534 8.42674 74.5768 8.74858 75.8997L10.9459 84.9218C13.3218 94.6778 19.8583 102.802 28.879 107.213C31.1877 108.341 33.8983 108.084 35.9523 106.539C38.0069 104.996 39.0085 102.464 38.5667 99.9324L36.8325 89.9984C36.6955 89.215 37.1995 88.4789 37.979 88.3225C38.5721 88.2044 39.1636 88.4557 39.489 88.9645L51.1675 107.208L35.7117 122.664C35.4634 122.433 7.3926 109.256 4.10971 75.4053V75.4053Z" fill="black"/>
</g>
<defs>
<clipPath id="clip0">
<rect width="140" height="140" fill="white"/>
</clipPath>
</defs>
</svg>
