<svg width="140" height="140" viewBox="0 0 140 140" fill="none" xmlns="http://www.w3.org/2000/svg">
<g clip-path="url(#clip0)">
<path d="M115.978 117.953L112.893 116.915C112.438 116.763 112.025 116.5 111.689 116.146C111.153 115.588 110.859 114.85 110.859 114.067V110.894L111.778 110.333C113.693 109.166 114.882 107.045 114.882 104.801V99.3433C114.882 99.3358 114.882 99.3294 114.882 99.323V94.5571C114.882 90.6136 111.678 87.405 107.739 87.405H101.436C97.4966 87.405 94.2922 90.6136 94.2922 94.5571V98.6608V98.6672V104.801C94.2922 107.045 95.4821 109.166 97.3972 110.333L98.319 110.895V114.067C98.319 114.899 97.9676 115.705 97.3599 116.273C97.048 116.563 96.6827 116.78 96.2757 116.917L93.1953 117.953C91.592 118.492 90.1629 119.355 88.9431 120.515C88.9314 120.526 88.9207 120.537 88.9089 120.548C88.8972 120.558 88.8854 120.569 88.8737 120.58C88.8619 120.591 88.8523 120.603 88.8406 120.615C88.8117 120.645 88.7829 120.675 88.7551 120.707C88.7359 120.728 88.7177 120.75 88.6996 120.773C88.6772 120.802 88.6547 120.831 88.6334 120.86C88.6141 120.888 88.5949 120.916 88.5768 120.945C88.5607 120.97 88.5436 120.996 88.5287 121.023C88.5095 121.056 88.4913 121.089 88.4742 121.122C88.4625 121.147 88.4496 121.171 88.439 121.196C88.4229 121.232 88.4069 121.267 88.393 121.304C88.3824 121.329 88.3738 121.355 88.3642 121.381C88.3524 121.416 88.3407 121.451 88.33 121.489C88.3225 121.516 88.3151 121.545 88.3076 121.574C88.3001 121.608 88.2926 121.641 88.2862 121.674C88.2798 121.707 88.2745 121.742 88.2702 121.775C88.2659 121.805 88.2627 121.835 88.2595 121.864C88.2563 121.902 88.2542 121.939 88.252 121.977C88.251 122.003 88.251 122.031 88.251 122.058C88.251 122.097 88.252 122.136 88.2542 122.175C88.2552 122.202 88.2574 122.23 88.2606 122.258C88.2638 122.294 88.2691 122.331 88.2745 122.369C88.2798 122.4 88.2852 122.43 88.2916 122.461C88.298 122.493 88.3055 122.526 88.3129 122.559C88.3225 122.594 88.3332 122.629 88.3439 122.665C88.3524 122.691 88.361 122.719 88.3706 122.746C88.3845 122.785 88.4005 122.825 88.4176 122.865C88.424 122.879 88.4283 122.894 88.4347 122.908C89.0157 124.175 89.3095 125.527 89.3095 126.928V137.487C89.3095 138.62 90.2281 139.538 91.3603 139.538C92.4925 139.538 93.411 138.62 93.411 137.487V126.928C93.411 125.478 93.1867 124.064 92.7467 122.705C93.2882 122.343 93.8746 122.052 94.5048 121.84L97.5831 120.805C98.1374 120.618 98.6587 120.367 99.1447 120.056C99.996 120.305 100.859 120.493 101.733 120.615L98.6448 131.532C98.4536 132.209 98.6224 132.936 99.0913 133.459L102.862 137.664C103.239 138.085 103.773 138.332 104.338 138.346H104.389C104.935 138.346 105.459 138.128 105.845 137.739L110.015 133.535C110.55 132.994 110.742 132.203 110.516 131.478L107.099 120.553C108.01 120.404 108.908 120.183 109.792 119.896C110.345 120.282 110.952 120.591 111.591 120.805L114.669 121.84C117.702 122.862 119.74 125.704 119.74 128.911V137.487C119.74 138.62 120.658 139.538 121.791 139.538C122.923 139.538 123.842 138.62 123.842 137.487V128.911C123.842 123.942 120.682 119.538 115.978 117.953V117.953ZM104.511 116.683C103.661 116.7 102.817 116.64 101.986 116.506C102.27 115.73 102.421 114.906 102.421 114.067V113.238C103.122 113.489 103.855 113.615 104.588 113.615C105.322 113.615 106.055 113.488 106.757 113.237V114.067C106.757 114.863 106.887 115.64 107.137 116.372C106.274 116.558 105.396 116.663 104.511 116.683V116.683ZM98.3949 99.9372L102.086 98.0103L110.781 100.81V104.8C110.781 105.625 110.345 106.404 109.642 106.832L105.818 109.164C105.059 109.626 104.117 109.626 103.357 109.164L99.5335 106.832C98.8307 106.404 98.3949 105.625 98.3949 104.8V99.9372ZM101.436 91.5065H107.74C109.417 91.5065 110.781 92.8748 110.781 94.5571V96.5L102.526 93.8425C102.003 93.6737 101.435 93.7229 100.948 93.9771L98.3949 95.3101V94.5571C98.3949 92.8748 99.7588 91.5065 101.436 91.5065ZM104.464 133.307L102.899 131.562L104.487 125.946L106.233 131.523L104.464 133.307Z" fill="black"/>
<path d="M84.0553 113.89L80.2614 112.611C79.6248 112.398 79.0448 112.03 78.5844 111.551C78.5844 111.55 78.5834 111.549 78.5823 111.548C77.8346 110.762 77.4234 109.735 77.4234 108.652V104.483L78.7852 103.653C81.0026 102.301 82.3805 99.8463 82.3805 97.2465V90.5206C82.3805 90.5132 82.3805 90.5067 82.3805 90.5003V84.6353C82.3805 80.0414 78.6474 76.304 74.0599 76.304H66.3C61.7125 76.304 57.9805 80.0414 57.9805 84.6353V89.695V89.7014V97.2465C57.9805 99.8463 59.3573 102.301 61.5747 103.653L62.9376 104.484V108.652C62.9376 109.81 62.4505 110.929 61.6078 111.715C61.1677 112.123 60.6604 112.424 60.0964 112.612L56.3067 113.891C53.5275 114.828 51.1285 116.645 49.458 119.016C48.7413 118.582 47.9754 118.226 47.1647 117.953L44.079 116.915C43.6186 116.762 43.2148 116.506 42.8752 116.149C42.339 115.587 42.0431 114.849 42.0431 114.067V110.895L42.9638 110.333C44.879 109.166 46.0678 107.045 46.0678 104.801V99.3433C46.0678 99.3358 46.0678 99.3294 46.0678 99.323V94.557C46.0678 90.6136 42.8634 87.4049 38.9242 87.4049H32.6213C28.6821 87.4049 25.4777 90.6136 25.4777 94.557V98.6607V98.6671V104.801C25.4777 107.045 26.6676 109.166 28.5827 110.333L29.5034 110.895V114.067C29.5034 114.901 29.1531 115.706 28.5443 116.273C28.2313 116.564 27.8671 116.781 27.4623 116.917L24.3829 117.953C19.68 119.538 16.5205 123.941 16.5205 128.911V137.487C16.5205 138.619 17.438 139.537 18.5713 139.537C19.7035 139.537 20.6221 138.619 20.6221 137.487V128.911C20.6221 125.703 22.66 122.862 25.6913 121.84L28.7697 120.805C29.324 120.618 29.8442 120.366 30.3302 120.055C31.1815 120.305 32.0445 120.493 32.9182 120.614L29.8303 131.532C29.6391 132.208 29.8079 132.935 30.2768 133.459L34.0472 137.664C34.4243 138.085 34.9583 138.331 35.5223 138.345H35.5735C36.1204 138.345 36.6449 138.128 37.0305 137.739L41.1993 133.534C41.7344 132.994 41.9278 132.203 41.7003 131.478L38.2834 120.553C39.1945 120.404 40.0938 120.183 40.9771 119.895C41.5326 120.283 42.1393 120.592 42.778 120.804L45.8552 121.84C46.4865 122.052 47.0739 122.343 47.6144 122.705C47.1754 124.064 46.9511 125.478 46.9511 126.927V137.487C46.9511 138.619 47.8686 139.537 49.0019 139.537C50.1341 139.537 51.0527 138.619 51.0527 137.487V126.927C51.0527 125.527 51.3464 124.175 51.9275 122.906C53.0298 120.494 55.103 118.624 57.6173 117.777L61.4016 116.5C62.1151 116.262 62.7838 115.93 63.4033 115.51C64.6701 115.896 65.9625 116.162 67.272 116.31L63.32 130.284C63.1288 130.961 63.2965 131.688 63.7665 132.211L68.4074 137.388C68.7845 137.808 69.3185 138.055 69.8836 138.069C69.9006 138.07 69.9177 138.07 69.9348 138.07C70.4806 138.07 71.0051 137.852 71.3907 137.463L76.524 132.286C77.0591 131.747 77.2514 130.955 77.025 130.23L72.6521 116.247C74.014 116.061 75.3566 115.747 76.6682 115.304C77.3625 115.818 78.1347 116.225 78.954 116.499L82.7437 117.777C82.9616 117.849 83.1827 117.885 83.3995 117.885C84.255 117.885 85.054 117.344 85.3424 116.489C85.7055 115.415 85.1288 114.252 84.0553 113.89V113.89ZM35.6964 116.683C34.8462 116.7 34.0024 116.64 33.1714 116.506C33.4544 115.73 33.605 114.906 33.605 114.067V113.237C34.3068 113.489 35.0406 113.615 35.7733 113.615C36.5071 113.615 37.2398 113.489 37.9416 113.237V114.067C37.9416 114.862 38.0729 115.639 38.3218 116.372C37.4598 116.558 36.5819 116.663 35.6964 116.683ZM29.5804 99.9371L33.2718 98.0103L41.9673 100.81V104.8C41.9673 105.625 41.5304 106.403 40.8287 106.832L37.0038 109.164C36.2454 109.626 35.3022 109.626 34.5439 109.164L30.719 106.832C30.0172 106.403 29.5804 105.625 29.5804 104.8V99.9371ZM32.6223 91.5065H38.9253C40.6022 91.5065 41.9673 92.8748 41.9673 94.557V96.4999L33.7118 93.8425C33.1895 93.6737 32.6202 93.7228 32.1342 93.977L29.5804 95.3101V94.557C29.5804 92.8748 30.9454 91.5065 32.6223 91.5065ZM35.6494 133.307L34.0846 131.562L35.674 125.946L37.4182 131.523L35.6494 133.307ZM70.095 112.348C68.824 112.374 67.5615 112.261 66.3214 112.016C66.7892 110.965 67.0402 109.819 67.0402 108.652V106.924C68.0378 107.387 69.1092 107.622 70.1805 107.622C71.2529 107.622 72.3231 107.386 73.3218 106.923V108.652C73.3218 109.757 73.5408 110.834 73.9552 111.831C72.6906 112.146 71.4003 112.32 70.095 112.348ZM66.3 80.4056H74.0609C76.3862 80.4056 78.2789 82.3026 78.2789 84.6353V87.6784L67.4963 84.2059C66.974 84.0382 66.4058 84.0863 65.9187 84.3405L62.082 86.3443V84.6353C62.082 82.3026 63.9747 80.4056 66.3 80.4056V80.4056ZM62.082 90.9714L67.0562 88.3737L78.2789 91.9872V97.2465C78.2789 98.4257 77.6552 99.5387 76.6501 100.151L71.9418 103.022C70.8555 103.684 69.5054 103.684 68.4192 103.022L63.7109 100.151C62.7069 99.5387 62.082 98.4247 62.082 97.2465V90.9714ZM70.0107 133.032L67.5743 130.314L70.0342 121.618L72.7429 130.276L70.0107 133.032Z" fill="black"/>
<path d="M139.4 101.34L92.4946 54.4237C92.4914 54.4205 92.4882 54.4183 92.485 54.4151L75.9207 37.8465C74.8408 36.7656 73.5046 36.035 72.0509 35.7071V22.7797H94.5572C95.7652 22.7797 96.8216 22.0502 97.2477 20.9201C97.675 19.79 97.3652 18.5435 96.4584 17.7457L91.1232 13.046L96.4584 8.34625C97.3652 7.54837 97.675 6.30188 97.2477 5.17181C96.8216 4.04175 95.7652 3.31116 94.5572 3.31116H72.0509V2.59766C72.0509 1.46439 71.1323 0.546875 70.0001 0.546875C68.8679 0.546875 67.9493 1.46439 67.9493 2.59766V35.8502C66.7093 36.2262 65.5739 36.9034 64.6318 37.8465L57.3376 45.1428C56.5365 45.9439 56.5365 47.2417 57.3376 48.0428C58.1387 48.8428 59.4375 48.8438 60.2376 48.0417L67.5317 40.7465C68.2644 40.0127 69.2396 39.6089 70.2757 39.6089C71.3128 39.6089 72.287 40.0127 73.0208 40.7465L87.8131 55.5431L81.461 59.7333L73.856 54.4109C73.1286 53.9014 72.1556 53.9185 71.4464 54.4525L64.4801 59.6991L57.7958 55.2365C57.2383 54.8648 56.5344 54.7879 55.9096 55.0325L51.542 56.7393L53.7359 54.5444C54.537 53.7433 54.537 52.4455 53.7359 51.6444C52.9349 50.8444 51.636 50.8444 50.836 51.6444L41.7431 60.7405C41.7389 60.7437 41.7357 60.7469 41.7325 60.7512L0.600414 101.892C-0.200672 102.693 -0.199604 103.992 0.600414 104.792C1.00096 105.192 1.52647 105.392 2.05091 105.392C2.57643 105.392 3.10087 105.192 3.50142 104.792L44.3162 63.9673L56.4073 59.2419L63.412 63.9192C64.1372 64.4031 65.0889 64.3764 65.7843 63.8519L72.7238 58.6256L80.2498 63.8936C80.9387 64.3764 81.853 64.3892 82.5558 63.9256L90.7728 58.5039L136.499 104.24C136.899 104.64 137.424 104.841 137.949 104.841C138.474 104.841 138.998 104.64 139.399 104.241C140.2 103.439 140.2 102.141 139.4 101.34V101.34ZM91.3122 7.41272L87.3677 10.8873C86.7482 11.4331 86.3936 12.2203 86.3936 13.046C86.3936 13.8716 86.7482 14.6588 87.3677 15.2046L91.3122 18.6781H72.0509V7.41272H91.3122Z" fill="black"/>
</g>
<defs>
<clipPath id="clip0">
<rect width="140" height="140" fill="white"/>
</clipPath>
</defs>
</svg>
