<svg width="32" height="32" viewBox="0 0 32 32" fill="none" xmlns="http://www.w3.org/2000/svg">
<path d="M20.02 24.472L16.482 19.542C16.3273 19.5613 16.076 19.571 15.728 19.571H11.813V24.472H9V8H15.728C17.9127 8 19.6333 8.51233 20.89 9.537C22.1467 10.5617 22.775 11.9827 22.775 13.8C22.775 15.0567 22.456 16.1297 21.818 17.019C21.1993 17.9083 20.31 18.5753 19.15 19.02L23.065 24.472H20.02ZM15.554 17.28C16.9847 17.28 18.0673 16.9803 18.802 16.381C19.556 15.7817 19.933 14.9213 19.933 13.8C19.933 12.6787 19.556 11.8183 18.802 11.219C18.0673 10.6197 16.9847 10.32 15.554 10.32H11.813V17.28H15.554Z" fill="white"/>
<path fill-rule="evenodd" clip-rule="evenodd" d="M16 30C23.732 30 30 23.732 30 16C30 8.26801 23.732 2 16 2C8.26801 2 2 8.26801 2 16C2 23.732 8.26801 30 16 30ZM16 32C24.8366 32 32 24.8366 32 16C32 7.16344 24.8366 0 16 0C7.16344 0 0 7.16344 0 16C0 24.8366 7.16344 32 16 32Z" fill="white"/>
</svg>
