<svg width="526" height="159" viewBox="0 0 526 159" fill="none" xmlns="http://www.w3.org/2000/svg">
<rect x="2" y="2" width="522" height="155" stroke="white" stroke-width="4"/>
<path d="M96.232 119L78.908 94.86C78.1506 94.9547 76.92 95.002 75.216 95.002H56.046V119H42.272V38.344H75.216C85.9133 38.344 94.3386 40.8527 100.492 45.87C106.645 50.8873 109.722 57.8453 109.722 66.744C109.722 72.8973 108.16 78.1513 105.036 82.506C102.007 86.8607 97.652 90.1267 91.972 92.304L111.142 119H96.232ZM74.364 83.784C81.3693 83.784 86.6706 82.3167 90.268 79.382C93.96 76.4473 95.806 72.2347 95.806 66.744C95.806 61.2533 93.96 57.0407 90.268 54.106C86.6706 51.1713 81.3693 49.704 74.364 49.704H56.046V83.784H74.364Z" fill="white"/>
<path d="M168.067 120.136C159.831 120.136 152.353 118.337 145.631 114.74C138.91 111.143 133.656 106.22 129.869 99.972C126.083 93.6293 124.189 86.5293 124.189 78.672C124.189 70.8147 126.083 63.762 129.869 57.514C133.656 51.1713 138.91 46.2013 145.631 42.604C152.353 39.0067 159.831 37.208 168.067 37.208C176.398 37.208 183.877 39.0067 190.503 42.604C197.225 46.2013 202.479 51.1713 206.265 57.514C210.052 63.762 211.945 70.8147 211.945 78.672C211.945 86.5293 210.052 93.6293 206.265 99.972C202.479 106.22 197.225 111.143 190.503 114.74C183.877 118.337 176.398 120.136 168.067 120.136ZM168.067 108.208C173.747 108.208 178.859 106.93 183.403 104.374C187.947 101.818 191.497 98.3153 194.053 93.866C196.704 89.4167 198.029 84.352 198.029 78.672C198.029 72.992 196.704 67.9273 194.053 63.478C191.497 59.0287 187.947 55.526 183.403 52.97C178.859 50.414 173.747 49.136 168.067 49.136C162.387 49.136 157.275 50.414 152.731 52.97C148.187 55.526 144.59 59.0287 141.939 63.478C139.383 67.9273 138.105 72.992 138.105 78.672C138.105 84.352 139.383 89.4167 141.939 93.866C144.59 98.3153 148.187 101.818 152.731 104.374C157.275 106.93 162.387 108.208 168.067 108.208Z" fill="white"/>
<path d="M288.633 77.11C293.461 78.4353 297.153 80.802 299.709 84.21C302.36 87.618 303.685 91.9253 303.685 97.132C303.685 104.137 300.94 109.533 295.449 113.32C290.053 117.107 282.148 119 271.735 119H231.975V38.344H269.463C279.024 38.344 286.408 40.2373 291.615 44.024C296.822 47.716 299.425 52.7807 299.425 59.218C299.425 63.3833 298.478 66.9807 296.585 70.01C294.692 73.0393 292.041 75.406 288.633 77.11ZM245.749 48.852V72.992H268.043C273.628 72.992 277.936 71.9507 280.965 69.868C284.089 67.7853 285.651 64.8033 285.651 60.922C285.651 56.946 284.136 53.964 281.107 51.976C278.078 49.8933 273.723 48.852 268.043 48.852H245.749ZM271.025 108.492C283.521 108.492 289.769 104.327 289.769 95.996C289.769 87.6653 283.521 83.5 271.025 83.5H245.749V108.492H271.025Z" fill="white"/>
<path d="M359.712 120.136C351.476 120.136 343.997 118.337 337.276 114.74C330.555 111.143 325.301 106.22 321.514 99.972C317.727 93.6293 315.834 86.5293 315.834 78.672C315.834 70.8147 317.727 63.762 321.514 57.514C325.301 51.1713 330.555 46.2013 337.276 42.604C343.997 39.0067 351.476 37.208 359.712 37.208C368.043 37.208 375.521 39.0067 382.148 42.604C388.869 46.2013 394.123 51.1713 397.91 57.514C401.697 63.762 403.59 70.8147 403.59 78.672C403.59 86.5293 401.697 93.6293 397.91 99.972C394.123 106.22 388.869 111.143 382.148 114.74C375.521 118.337 368.043 120.136 359.712 120.136ZM359.712 108.208C365.392 108.208 370.504 106.93 375.048 104.374C379.592 101.818 383.142 98.3153 385.698 93.866C388.349 89.4167 389.674 84.352 389.674 78.672C389.674 72.992 388.349 67.9273 385.698 63.478C383.142 59.0287 379.592 55.526 375.048 52.97C370.504 50.414 365.392 49.136 359.712 49.136C354.032 49.136 348.92 50.414 344.376 52.97C339.832 55.526 336.235 59.0287 333.584 63.478C331.028 67.9273 329.75 72.992 329.75 78.672C329.75 84.352 331.028 89.4167 333.584 93.866C336.235 98.3153 339.832 101.818 344.376 104.374C348.92 106.93 354.032 108.208 359.712 108.208Z" fill="white"/>
<path d="M469.714 119L446.852 87.902L423.706 119H407.944L439.326 77.678L409.79 38.344H425.268L446.994 67.596L468.578 38.344H483.914L454.52 77.536L485.618 119H469.714Z" fill="white"/>
</svg>
