<svg width="190" height="190" viewBox="0 0 190 190" fill="none" xmlns="http://www.w3.org/2000/svg">
<circle cx="95" cy="95" r="94" stroke="#E4E4E4" stroke-width="2"/>
<circle cx="95" cy="95" r="74" stroke="#7E7E7E" stroke-width="2"/>
<circle cx="95" cy="95" r="55" fill="#121212" fill-opacity="0.9"/>
<circle cx="95" cy="95" r="50" fill="#121212"/>
<mask id="mask0" mask-type="alpha" maskUnits="userSpaceOnUse" x="45" y="45" width="100" height="100">
<circle cx="95" cy="95" r="50" fill="#121212"/>
</mask>
<g mask="url(#mask0)">
<path d="M84.2944 106.4C86.4694 104.444 88.3136 102.089 89.6874 99.4021L95.1807 100.869L97.8246 91.0024L92.3324 89.5308C92.4878 86.5171 92.0678 83.5561 91.1625 80.774L96.1016 77.9212L90.9942 69.075L86.0556 71.9264C84.0988 69.7513 81.746 67.9075 79.0584 66.5352L80.5296 61.0445L70.6598 58.3999L69.1889 63.8892C66.1734 63.7348 63.2139 64.1552 60.4303 65.0601L57.58 60.1233L48.7324 65.2302L51.5833 70.1703C49.4083 72.1271 47.566 74.4803 46.1922 77.1676L40.7015 75.6963L38.0573 85.5647L43.548 87.0359C43.3937 90.0515 43.814 93.011 44.7189 95.7946L39.7784 98.647L44.8876 107.492L49.8262 104.641C51.7834 106.814 54.1362 108.658 56.8238 110.03L55.3518 115.524L65.2202 118.168L66.6918 112.676C69.7059 112.83 72.6665 112.411 75.4486 111.506L78.2996 116.446L87.1457 111.339L84.2944 106.4ZM64.7717 100.114C58.2498 98.3667 54.3652 91.6384 56.1131 85.1151C57.8607 78.5932 64.589 74.7086 71.1108 76.4562C77.6327 78.2037 81.5173 84.932 79.7698 91.4539C78.0214 97.9787 71.2935 101.862 64.7717 100.114Z" fill="white"/>
<path d="M149.095 72.7069C149.249 69.6913 148.83 66.7322 147.925 63.9501L152.863 61.0988L147.755 52.2507L142.816 55.1021C140.86 52.927 138.507 51.0832 135.819 49.711L137.29 44.2202L127.421 41.5756L125.949 47.0663C122.935 46.9124 119.975 47.3309 117.193 48.2362L114.341 43.299L105.491 48.407L108.344 53.3461C106.169 55.3028 104.327 57.656 102.953 60.3447L97.4619 58.8735L94.8181 68.7404L100.309 70.2117C100.154 73.2272 100.574 76.1882 101.48 78.9703L96.5425 81.822L101.65 90.6667L106.588 87.8183C108.545 89.9919 110.9 91.8361 113.587 93.2084L112.116 98.6991L121.983 101.343L123.454 95.8522C126.468 96.0076 129.429 95.5876 132.21 94.6838L135.062 99.621L143.908 94.5151L141.058 89.5769C143.234 87.6186 145.076 85.2654 146.45 82.5767L151.943 84.0454L154.586 74.18L149.094 72.7084L149.095 72.7069ZM121.533 83.287C115.011 81.5395 111.127 74.8112 112.874 68.2894C114.622 61.7675 121.35 57.8829 127.872 59.6304C134.394 61.378 138.278 68.1062 136.531 74.6281C134.783 81.15 128.055 85.0346 121.533 83.287Z" fill="white"/>
<path d="M129.101 123.964L134.04 121.112L128.931 112.266L123.992 115.117C122.035 112.942 119.682 111.1 116.995 109.726L118.467 104.232L108.597 101.588L107.125 107.08C104.11 106.925 101.151 107.344 98.3671 108.249L95.5169 103.312L86.6692 108.419L89.5202 113.359C87.3451 115.316 85.5028 117.669 84.1291 120.357L78.6383 118.885L75.9945 128.752L81.4852 130.224C81.3309 133.239 81.7505 136.202 82.6568 138.986L77.716 141.833L82.8245 150.681L87.7631 147.83C89.7199 150.005 92.0741 151.849 94.7614 153.223L93.2905 158.712L103.157 161.356L104.628 155.867C107.644 156.021 110.603 155.601 113.387 154.696L116.237 159.634L125.083 154.527L122.233 149.588C124.408 147.632 126.251 145.277 127.625 142.59L133.118 144.057L135.761 134.192L130.271 132.72C130.425 129.706 130.004 126.747 129.101 123.964ZM102.709 143.302C96.1871 141.554 92.3025 134.826 94.0504 128.303C95.7979 121.781 102.526 117.898 109.048 119.645C115.57 121.393 119.455 128.12 117.707 134.642C115.959 141.165 109.231 145.049 102.709 143.302Z" fill="white"/>
</g>
</svg>
