<svg width="190" height="190" viewBox="0 0 190 190" fill="none" xmlns="http://www.w3.org/2000/svg">
<circle cx="95" cy="95" r="94" stroke="#E4E4E4" stroke-width="2"/>
<circle cx="95" cy="95" r="74" stroke="#7E7E7E" stroke-width="2"/>
<circle cx="95" cy="95" r="55" fill="#121212" fill-opacity="0.9"/>
<circle cx="95" cy="95" r="50" fill="#121212"/>
<path fill-rule="evenodd" clip-rule="evenodd" d="M126.944 119.66L126.949 119.662L126.95 119.661C126.205 120.952 124.576 121.396 123.296 120.657L115.398 116.097C115.299 116.193 115.199 116.288 115.099 116.383L101.405 70.9826C101.106 69.6609 100.284 69 98.9386 69H92.0615C90.716 69 89.8937 69.6609 89.5947 70.9826L75.6167 117.325C75.218 116.974 74.8287 116.613 74.4495 116.242L66.4974 120.87C65.2129 121.619 63.5922 121.185 62.857 119.9L57.546 110.623C56.8119 109.339 57.2526 107.701 58.5376 106.953L66.4945 102.321C65.3242 97.5891 65.3432 92.6304 66.55 87.8894L58.6318 83.3236C57.3521 82.5851 56.924 80.9476 57.6702 79.6572L63.049 70.3408C63.7943 69.05 65.4238 68.6075 66.7033 69.3463L74.6022 73.9067C78.1072 70.4819 82.3981 67.9792 87.0892 66.6237L87.1238 57.4525C87.1292 55.9656 88.3266 54.7642 89.8067 54.7586L100.499 54.715C101.979 54.7095 103.166 55.9024 103.161 57.3894L103.126 66.6003C105.458 67.2439 107.701 68.1755 109.801 69.3737C111.891 70.5909 113.82 72.064 115.546 73.7596L123.496 69.1299C124.781 68.3816 126.404 68.8106 127.139 70.0956L132.454 79.3753C132.638 79.6964 132.748 80.0426 132.789 80.3875C132.913 81.4235 132.426 82.4845 131.463 83.0459L123.502 87.6751C124.672 92.4071 124.653 97.3659 123.446 102.107L131.362 106.677C132.642 107.416 133.072 109.048 132.326 110.339L126.944 119.66ZM81.1796 121.165C82.9903 122.106 84.8961 122.853 86.8663 123.395L86.8313 132.606C86.8255 134.093 88.0123 135.286 89.4932 135.28L100.187 135.244C101.298 135.24 102.247 134.562 102.655 133.597C102.791 133.275 102.865 132.919 102.866 132.547L102.901 123.376C105.25 122.686 107.507 121.705 109.618 120.456L106.115 108.157H84.8854L81.1796 121.165ZM86.6794 101.878L93.1828 79.2435C93.4319 78.4725 93.6562 77.7015 93.8555 76.9304C94.0548 76.1044 94.2542 75.3333 94.4535 74.6174H96.5465C96.7459 75.3333 96.9452 76.1044 97.1445 76.9304C97.3937 77.7015 97.618 78.4725 97.8173 79.2435L104.321 101.878H86.6794Z" fill="white"/>
</svg>
