<svg width="171" height="104" viewBox="0 0 171 104" fill="none" xmlns="http://www.w3.org/2000/svg">
<path d="M38.216 0C9.84803 0 0.0560303 13.68 0.0560303 51.552C0.0560303 89.424 9.84803 103.104 38.216 103.104C66.728 103.104 76.52 89.424 76.52 51.552C76.52 13.68 66.728 0 38.216 0ZM38.072 17.424C51.176 17.424 54.92 24.48 54.92 51.552C54.92 78.624 51.176 85.68 38.072 85.68C25.4 85.68 21.656 78.624 21.656 51.552C21.656 24.48 25.4 17.424 38.072 17.424Z" fill="#E4E4E4"/>
<path d="M170.683 63.792H158.299V21.168H141.595L137.995 37.008V63.792H113.947C111.211 63.792 109.627 62.208 111.067 59.04L134.683 1.87199H113.947L88.1705 63.216C84.8585 71.28 90.0425 79.344 98.6825 79.344H137.995V101.232H158.299V79.344H158.587L170.683 77.328V63.792Z" fill="#E4E4E4"/>
</svg>
