<svg display="none" xmlns="http://www.w3.org/2000/svg">

    <symbol id="lce-white" viewBox="0 0 335 168" fill="#ffffff">
  
        <path d="M23.6733 58.5133H0V139.36H90.6733V116.58H23.6733V58.5133Z" fill="#ffffff"/>
        <path d="M105.413 58.5133H129.533V92.0133C129.533 111.667 134.625 116.58 160.353 116.58C181.793 116.58 196.087 118.813 196.087 92.0133H221.993V111.667C221.993 122.387 209.04 139.36 192.96 139.36H134.447C121.94 139.36 105.413 127.389 105.413 111.667V58.5133Z" fill="#ffffff"/>
        <path d="M241.2 58.5133H335V78.6133H266.66V116.58H335V139.36H241.2V58.5133Z" fill="#ffffff"/>
        <path d="M241.2 54.0467H266.66V22.78H335V0H241.2V54.0467Z" fill="#ffffff"/>
        <path d="M105.413 54.0467H129.533V47.3467C129.533 27.6933 134.625 22.78 160.353 22.78C181.793 22.78 196.087 20.5467 196.087 47.3467H221.993V27.6933C221.993 16.9733 209.04 0 192.96 0H134.447C121.94 0 105.413 11.9707 105.413 27.6933V54.0467Z" fill="#ffffff"/>
        <path d="M23.6733 54.0467H0V0H23.6733V54.0467Z" fill="#ffffff"/>
        <path d="M2.87016 163.48H1.23804V149.785H2.87016V163.48Z" fill="#ffffff"/>
        <path d="M13.5019 155.713V154.1H15.1341V163.48H13.5019V161.867C12.7015 163.105 11.5196 163.724 9.95631 163.724C8.6306 163.724 7.51125 163.249 6.59827 162.298C5.67277 161.335 5.21003 160.166 5.21003 158.79C5.21003 157.427 5.67277 156.264 6.59827 155.301C7.52376 154.338 8.64311 153.856 9.95631 153.856C11.5196 153.856 12.7015 154.475 13.5019 155.713ZM10.1627 162.148C11.1132 162.148 11.9073 161.829 12.5452 161.191C13.183 160.528 13.5019 159.728 13.5019 158.79C13.5019 157.839 13.183 157.045 12.5452 156.407C11.9073 155.757 11.1132 155.432 10.1627 155.432C9.22467 155.432 8.43675 155.757 7.79891 156.407C7.16107 157.045 6.84215 157.839 6.84215 158.79C6.84215 159.728 7.16107 160.528 7.79891 161.191C8.43675 161.829 9.22467 162.148 10.1627 162.148Z" fill="#ffffff"/>
        <path d="M22.6533 153.856C23.7539 153.856 24.6356 154.206 25.2985 154.907C25.9613 155.595 26.2928 156.533 26.2928 157.721V163.48H24.6606V157.814C24.6606 157.064 24.4543 156.476 24.0416 156.051C23.6288 155.626 23.0598 155.413 22.3344 155.413C21.4964 155.413 20.8336 155.676 20.3458 156.201C19.8581 156.714 19.6142 157.483 19.6142 158.509V163.48H17.9821V154.1H19.6142V155.451C20.2645 154.388 21.2776 153.856 22.6533 153.856Z" fill="#ffffff"/>
        <path d="M36.7318 155.713V154.1H38.3452V163.086C38.3452 164.474 37.8762 165.55 36.9382 166.313C35.9877 167.088 34.8621 167.476 33.5614 167.476C32.5108 167.476 31.6041 167.276 30.8412 166.876C30.0783 166.488 29.503 165.925 29.1153 165.187L30.541 164.38C31.0538 165.431 32.0731 165.956 33.5989 165.956C34.5744 165.956 35.3373 165.7 35.8876 165.187C36.4504 164.674 36.7318 163.974 36.7318 163.086V161.754C35.9064 163.005 34.7307 163.63 33.2049 163.63C31.8542 163.63 30.7224 163.155 29.8094 162.204C28.8839 161.241 28.4211 160.084 28.4211 158.734C28.4211 157.383 28.8839 156.232 29.8094 155.282C30.7224 154.331 31.8542 153.856 33.2049 153.856C34.7433 153.856 35.9189 154.475 36.7318 155.713ZM36.7318 158.734C36.7318 157.796 36.4129 157.008 35.7751 156.37C35.1372 155.732 34.343 155.413 33.3925 155.413C32.442 155.413 31.6479 155.732 31.01 156.37C30.3722 157.008 30.0533 157.796 30.0533 158.734C30.0533 159.684 30.3722 160.478 31.01 161.116C31.6479 161.754 32.442 162.073 33.3925 162.073C34.343 162.073 35.1372 161.754 35.7751 161.116C36.4129 160.478 36.7318 159.684 36.7318 158.734Z" fill="#ffffff"/>
        <path d="M50.198 159.54H42.3375C42.5001 160.366 42.8816 161.016 43.4819 161.491C44.0822 161.954 44.8326 162.186 45.7331 162.186C46.9713 162.186 47.8717 161.729 48.4345 160.816L49.8228 161.604C48.8973 163.017 47.5215 163.724 45.6956 163.724C44.2198 163.724 43.0066 163.261 42.0561 162.336C41.1306 161.385 40.6679 160.203 40.6679 158.79C40.6679 157.364 41.1244 156.189 42.0374 155.263C42.9504 154.325 44.1322 153.856 45.583 153.856C46.9588 153.856 48.0781 154.344 48.9411 155.319C49.8165 156.27 50.2543 157.433 50.2543 158.809C50.2543 159.046 50.2355 159.29 50.198 159.54ZM45.583 155.394C44.7201 155.394 43.9947 155.638 43.4069 156.126C42.8316 156.614 42.4751 157.277 42.3375 158.115H48.6034C48.4658 157.252 48.1219 156.583 47.5716 156.107C47.0213 155.632 46.3584 155.394 45.583 155.394Z"/>
        <path d="M57.1768 153.856C58.2774 153.856 59.1591 154.206 59.822 154.907C60.4849 155.595 60.8163 156.533 60.8163 157.721V163.48H59.1842V157.814C59.1842 157.064 58.9778 156.476 58.5651 156.051C58.1524 155.626 57.5833 155.413 56.8579 155.413C56.02 155.413 55.3571 155.676 54.8694 156.201C54.3816 156.714 54.1377 157.483 54.1377 158.509V163.48H52.5056V154.1H54.1377V155.451C54.7881 154.388 55.8011 153.856 57.1768 153.856Z" fill="#ffffff"/>
        <path d="M74.876 163.724C72.875 163.724 71.2303 163.067 69.9421 161.754C68.654 160.453 68.0099 158.84 68.0099 156.914C68.0099 154.988 68.654 153.375 69.9421 152.074C71.2303 150.761 72.875 150.104 74.876 150.104C76.0642 150.104 77.1647 150.392 78.1778 150.967C79.1908 151.542 79.9787 152.318 80.5415 153.293L79.022 154.175C78.6468 153.45 78.084 152.874 77.3336 152.449C76.5957 152.011 75.7765 151.792 74.876 151.792C73.3502 151.792 72.1121 152.28 71.1615 153.256C70.211 154.219 69.7358 155.438 69.7358 156.914C69.7358 158.377 70.211 159.59 71.1615 160.553C72.1121 161.529 73.3502 162.017 74.876 162.017C75.7765 162.017 76.5957 161.804 77.3336 161.379C78.084 160.941 78.6468 160.366 79.022 159.653L80.5415 160.516C79.9913 161.491 79.2096 162.273 78.1965 162.861C77.196 163.436 76.0892 163.724 74.876 163.724Z"/>
        <path d="M90.6039 162.298C89.6534 163.249 88.4841 163.724 87.0958 163.724C85.7076 163.724 84.5382 163.249 83.5877 162.298C82.6372 161.348 82.1619 160.178 82.1619 158.79C82.1619 157.402 82.6372 156.232 83.5877 155.282C84.5382 154.331 85.7076 153.856 87.0958 153.856C88.4841 153.856 89.6534 154.331 90.6039 155.282C91.567 156.245 92.0485 157.414 92.0485 158.79C92.0485 160.166 91.567 161.335 90.6039 162.298ZM87.0958 162.129C88.0338 162.129 88.8217 161.81 89.4596 161.172C90.0974 160.535 90.4163 159.74 90.4163 158.79C90.4163 157.839 90.0974 157.045 89.4596 156.407C88.8217 155.77 88.0338 155.451 87.0958 155.451C86.1703 155.451 85.3887 155.77 84.7508 156.407C84.113 157.045 83.7941 157.839 83.7941 158.79C83.7941 159.74 84.113 160.535 84.7508 161.172C85.3887 161.81 86.1703 162.129 87.0958 162.129Z" fill="#ffffff"/>
        <path d="M99.019 153.856C100.12 153.856 101.001 154.206 101.664 154.907C102.327 155.595 102.658 156.533 102.658 157.721V163.48H101.026V157.814C101.026 157.064 100.82 156.476 100.407 156.051C99.9945 155.626 99.4254 155.413 98.7001 155.413C97.8621 155.413 97.1993 155.676 96.7115 156.201C96.2237 156.714 95.9799 157.483 95.9799 158.509V163.48H94.3477V154.1H95.9799V155.451C96.6302 154.388 97.6432 153.856 99.019 153.856Z" fill="#ffffff"/>
        <path d="M106.719 156.633C106.719 157.233 107.338 157.702 108.576 158.04C109.039 158.14 109.427 158.246 109.739 158.358C110.065 158.459 110.415 158.615 110.79 158.827C111.178 159.04 111.472 159.321 111.672 159.672C111.872 160.022 111.972 160.435 111.972 160.91C111.972 161.76 111.64 162.442 110.978 162.955C110.315 163.467 109.477 163.724 108.464 163.724C107.563 163.724 106.782 163.53 106.119 163.142C105.468 162.742 105.006 162.204 104.731 161.529L106.138 160.722C106.288 161.172 106.569 161.529 106.982 161.792C107.394 162.054 107.888 162.186 108.464 162.186C109.027 162.186 109.477 162.079 109.814 161.867C110.152 161.654 110.321 161.335 110.321 160.91C110.321 160.272 109.702 159.809 108.464 159.522C108.051 159.409 107.738 159.321 107.526 159.259C107.313 159.196 107.019 159.084 106.644 158.921C106.281 158.759 106.006 158.59 105.819 158.415C105.631 158.227 105.456 157.983 105.293 157.683C105.143 157.37 105.068 157.027 105.068 156.651C105.068 155.838 105.381 155.169 106.006 154.644C106.644 154.119 107.438 153.856 108.389 153.856C109.152 153.856 109.827 154.031 110.415 154.381C111.015 154.719 111.465 155.194 111.766 155.807L110.396 156.576C110.058 155.776 109.389 155.376 108.389 155.376C107.913 155.376 107.513 155.488 107.188 155.713C106.875 155.938 106.719 156.245 106.719 156.633Z" fill="#ffffff"/>
        <path d="M120.66 159.071V154.1H122.292V163.48H120.66V162.129C120.01 163.192 118.997 163.724 117.621 163.724C116.52 163.724 115.639 163.38 114.976 162.692C114.313 161.992 113.982 161.047 113.982 159.859V154.1H115.614V159.765C115.614 160.516 115.82 161.104 116.233 161.529C116.645 161.954 117.215 162.167 117.94 162.167C118.778 162.167 119.441 161.91 119.928 161.398C120.416 160.872 120.66 160.097 120.66 159.071Z" fill="#ffffff"/>
        <path d="M126.784 163.48H125.152V149.785H126.784V163.48Z" fill="#ffffff"/>
        <path d="M134.752 154.1V155.676H132.257V160.76C132.257 161.223 132.345 161.554 132.52 161.754C132.707 161.942 132.989 162.042 133.364 162.054C133.739 162.054 134.202 162.042 134.752 162.017V163.48C133.314 163.668 132.263 163.549 131.601 163.124C130.95 162.698 130.625 161.91 130.625 160.76V155.676H128.768V154.1H130.625V151.961L132.257 151.474V154.1H134.752Z" fill="#ffffff"/>
        <path d="M137.885 152.393C137.572 152.393 137.31 152.286 137.097 152.074C136.885 151.861 136.778 151.605 136.778 151.305C136.778 151.005 136.885 150.748 137.097 150.536C137.31 150.31 137.572 150.198 137.885 150.198C138.185 150.198 138.442 150.31 138.654 150.536C138.867 150.748 138.973 151.005 138.973 151.305C138.973 151.605 138.867 151.861 138.654 152.074C138.442 152.286 138.185 152.393 137.885 152.393ZM138.692 163.48H137.06V154.1H138.692V163.48Z" fill="#ffffff"/>
        <path d="M146.228 153.856C147.329 153.856 148.211 154.206 148.873 154.907C149.536 155.595 149.868 156.533 149.868 157.721V163.48H148.236V157.814C148.236 157.064 148.029 156.476 147.616 156.051C147.204 155.626 146.635 155.413 145.909 155.413C145.071 155.413 144.408 155.676 143.921 156.201C143.433 156.714 143.189 157.483 143.189 158.509V163.48H141.557V154.1H143.189V155.451C143.839 154.388 144.852 153.856 146.228 153.856Z" fill="#ffffff"/>
        <path d="M160.307 155.713V154.1H161.92V163.086C161.92 164.474 161.451 165.55 160.513 166.313C159.563 167.088 158.437 167.476 157.136 167.476C156.086 167.476 155.179 167.276 154.416 166.876C153.653 166.488 153.078 165.925 152.69 165.187L154.116 164.38C154.629 165.431 155.648 165.956 157.174 165.956C158.149 165.956 158.912 165.7 159.463 165.187C160.025 164.674 160.307 163.974 160.307 163.086V161.754C159.481 163.005 158.306 163.63 156.78 163.63C155.429 163.63 154.297 163.155 153.384 162.204C152.459 161.241 151.996 160.084 151.996 158.734C151.996 157.383 152.459 156.232 153.384 155.282C154.297 154.331 155.429 153.856 156.78 153.856C158.318 153.856 159.494 154.475 160.307 155.713ZM160.307 158.734C160.307 157.796 159.988 157.008 159.35 156.37C158.712 155.732 157.918 155.413 156.967 155.413C156.017 155.413 155.223 155.732 154.585 156.37C153.947 157.008 153.628 157.796 153.628 158.734C153.628 159.684 153.947 160.478 154.585 161.116C155.223 161.754 156.017 162.073 156.967 162.073C157.918 162.073 158.712 161.754 159.35 161.116C159.988 160.478 160.307 159.684 160.307 158.734Z" fill="#ffffff"/>
        <path d="M171.747 157.664V161.829H177.844V163.48H170.002V150.348H177.75V151.999H171.747V156.032H177.281V157.664H171.747Z" fill="#ffffff"/>
        <path d="M184.828 153.856C185.928 153.856 186.81 154.206 187.473 154.907C188.136 155.595 188.467 156.533 188.467 157.721V163.48H186.835V157.814C186.835 157.064 186.629 156.476 186.216 156.051C185.803 155.626 185.234 155.413 184.509 155.413C183.671 155.413 183.008 155.676 182.52 156.201C182.032 156.714 181.789 157.483 181.789 158.509V163.48H180.156V154.1H181.789V155.451C182.439 154.388 183.452 153.856 184.828 153.856Z" fill="#ffffff"/>
        <path d="M198.906 155.713V154.1H200.52V163.086C200.52 164.474 200.051 165.55 199.113 166.313C198.162 167.088 197.036 167.476 195.736 167.476C194.685 167.476 193.778 167.276 193.016 166.876C192.253 166.488 191.677 165.925 191.29 165.187L192.715 164.38C193.228 165.431 194.247 165.956 195.773 165.956C196.749 165.956 197.512 165.7 198.062 165.187C198.625 164.674 198.906 163.974 198.906 163.086V161.754C198.081 163.005 196.905 163.63 195.379 163.63C194.029 163.63 192.897 163.155 191.984 162.204C191.058 161.241 190.595 160.084 190.595 158.734C190.595 157.383 191.058 156.232 191.984 155.282C192.897 154.331 194.029 153.856 195.379 153.856C196.918 153.856 198.093 154.475 198.906 155.713ZM198.906 158.734C198.906 157.796 198.587 157.008 197.949 156.37C197.312 155.732 196.517 155.413 195.567 155.413C194.616 155.413 193.822 155.732 193.184 156.37C192.547 157.008 192.228 157.796 192.228 158.734C192.228 159.684 192.547 160.478 193.184 161.116C193.822 161.754 194.616 162.073 195.567 162.073C196.517 162.073 197.312 161.754 197.949 161.116C198.587 160.478 198.906 159.684 198.906 158.734Z" fill="#ffffff"/>
        <path d="M204.193 152.393C203.88 152.393 203.618 152.286 203.405 152.074C203.192 151.861 203.086 151.605 203.086 151.305C203.086 151.005 203.192 150.748 203.405 150.536C203.618 150.31 203.88 150.198 204.193 150.198C204.493 150.198 204.75 150.31 204.962 150.536C205.175 150.748 205.281 151.005 205.281 151.305C205.281 151.605 205.175 151.861 204.962 152.074C204.75 152.286 204.493 152.393 204.193 152.393ZM205 163.48H203.368V154.1H205V163.48Z" fill="#ffffff"/>
        <path d="M212.536 153.856C213.637 153.856 214.518 154.206 215.181 154.907C215.844 155.595 216.175 156.533 216.175 157.721V163.48H214.543V157.814C214.543 157.064 214.337 156.476 213.924 156.051C213.512 155.626 212.942 155.413 212.217 155.413C211.379 155.413 210.716 155.676 210.229 156.201C209.741 156.714 209.497 157.483 209.497 158.509V163.48H207.865V154.1H209.497V155.451C210.147 154.388 211.16 153.856 212.536 153.856Z" fill="#ffffff"/>
        <path d="M227.834 159.54H219.973C220.136 160.366 220.518 161.016 221.118 161.491C221.718 161.954 222.469 162.186 223.369 162.186C224.607 162.186 225.508 161.729 226.07 160.816L227.459 161.604C226.533 163.017 225.158 163.724 223.332 163.724C221.856 163.724 220.643 163.261 219.692 162.336C218.767 161.385 218.304 160.203 218.304 158.79C218.304 157.364 218.76 156.189 219.673 155.263C220.586 154.325 221.768 153.856 223.219 153.856C224.595 153.856 225.714 154.344 226.577 155.319C227.452 156.27 227.89 157.433 227.89 158.809C227.89 159.046 227.871 159.29 227.834 159.54ZM223.219 155.394C222.356 155.394 221.631 155.638 221.043 156.126C220.467 156.614 220.111 157.277 219.973 158.115H226.239C226.102 157.252 225.758 156.583 225.208 156.107C224.657 155.632 223.994 155.394 223.219 155.394Z" fill="#ffffff"/>
        <path d="M239.128 159.54H231.268C231.43 160.366 231.812 161.016 232.412 161.491C233.012 161.954 233.763 162.186 234.663 162.186C235.901 162.186 236.802 161.729 237.365 160.816L238.753 161.604C237.827 163.017 236.452 163.724 234.626 163.724C233.15 163.724 231.937 163.261 230.986 162.336C230.061 161.385 229.598 160.203 229.598 158.79C229.598 157.364 230.054 156.189 230.967 155.263C231.88 154.325 233.062 153.856 234.513 153.856C235.889 153.856 237.008 154.344 237.871 155.319C238.747 156.27 239.184 157.433 239.184 158.809C239.184 159.046 239.166 159.29 239.128 159.54ZM234.513 155.394C233.65 155.394 232.925 155.638 232.337 156.126C231.762 156.614 231.405 157.277 231.268 158.115H237.533C237.396 157.252 237.052 156.583 236.502 156.107C235.951 155.632 235.288 155.394 234.513 155.394Z" fill="#ffffff"/>
        <path d="M243.068 154.1V155.676C243.606 154.513 244.581 153.931 245.994 153.931V155.638C245.194 155.601 244.506 155.813 243.931 156.276C243.355 156.739 243.068 157.483 243.068 158.509V163.48H241.436V154.1H243.068Z" fill="#ffffff"/>
        <path d="M248.792 152.393C248.479 152.393 248.217 152.286 248.004 152.074C247.791 151.861 247.685 151.605 247.685 151.305C247.685 151.005 247.791 150.748 248.004 150.536C248.217 150.31 248.479 150.198 248.792 150.198C249.092 150.198 249.348 150.31 249.561 150.536C249.774 150.748 249.88 151.005 249.88 151.305C249.88 151.605 249.774 151.861 249.561 152.074C249.348 152.286 249.092 152.393 248.792 152.393ZM249.599 163.48H247.967V154.1H249.599V163.48Z" fill="#ffffff"/>
        <path d="M257.135 153.856C258.236 153.856 259.117 154.206 259.78 154.907C260.443 155.595 260.774 156.533 260.774 157.721V163.48H259.142V157.814C259.142 157.064 258.936 156.476 258.523 156.051C258.111 155.626 257.541 155.413 256.816 155.413C255.978 155.413 255.315 155.676 254.828 156.201C254.34 156.714 254.096 157.483 254.096 158.509V163.48H252.464V154.1H254.096V155.451C254.746 154.388 255.759 153.856 257.135 153.856Z" fill="#ffffff"/>
        <path d="M271.214 155.713V154.1H272.827V163.086C272.827 164.474 272.358 165.55 271.42 166.313C270.469 167.088 269.344 167.476 268.043 167.476C266.992 167.476 266.086 167.276 265.323 166.876C264.56 166.488 263.985 165.925 263.597 165.187L265.023 164.38C265.535 165.431 266.555 165.956 268.081 165.956C269.056 165.956 269.819 165.7 270.369 165.187C270.932 164.674 271.214 163.974 271.214 163.086V161.754C270.388 163.005 269.212 163.63 267.687 163.63C266.336 163.63 265.204 163.155 264.291 162.204C263.366 161.241 262.903 160.084 262.903 158.734C262.903 157.383 263.366 156.232 264.291 155.282C265.204 154.331 266.336 153.856 267.687 153.856C269.225 153.856 270.401 154.475 271.214 155.713ZM271.214 158.734C271.214 157.796 270.895 157.008 270.257 156.37C269.619 155.732 268.825 155.413 267.874 155.413C266.924 155.413 266.13 155.732 265.492 156.37C264.854 157.008 264.535 157.796 264.535 158.734C264.535 159.684 264.854 160.478 265.492 161.116C266.13 161.754 266.924 162.073 267.874 162.073C268.825 162.073 269.619 161.754 270.257 161.116C270.895 160.478 271.214 159.684 271.214 158.734Z" fill="#ffffff"/>
        <path d="M287.006 156.97H293.572V157.758C293.572 159.472 292.984 160.897 291.808 162.035C290.633 163.161 289.076 163.724 287.137 163.724C285.136 163.724 283.479 163.067 282.166 161.754C280.865 160.416 280.215 158.802 280.215 156.914C280.215 155.025 280.865 153.418 282.166 152.093C283.479 150.767 285.124 150.104 287.1 150.104C288.3 150.104 289.413 150.398 290.439 150.986C291.477 151.574 292.259 152.337 292.784 153.275L291.283 154.156C290.908 153.443 290.339 152.874 289.576 152.449C288.813 152.011 287.981 151.792 287.081 151.792C285.568 151.792 284.336 152.286 283.385 153.275C282.422 154.263 281.941 155.476 281.941 156.914C281.941 158.352 282.422 159.565 283.385 160.553C284.361 161.529 285.618 162.017 287.156 162.017C288.444 162.017 289.495 161.704 290.308 161.079C291.133 160.441 291.64 159.597 291.827 158.546H287.006V156.97Z" fill="#ffffff"/>
        <path d="M306.03 153.856C307.093 153.856 307.944 154.2 308.582 154.888C309.232 155.576 309.557 156.495 309.557 157.646V163.48H307.925V157.702C307.925 156.989 307.737 156.432 307.362 156.032C306.999 155.62 306.499 155.413 305.861 155.413C305.136 155.413 304.567 155.657 304.154 156.145C303.754 156.62 303.554 157.327 303.554 158.265V163.48H301.922V157.702C301.922 156.989 301.74 156.432 301.378 156.032C301.027 155.62 300.546 155.413 299.933 155.413C299.22 155.413 298.639 155.663 298.188 156.164C297.751 156.651 297.532 157.352 297.532 158.265V163.48H295.9V154.1H297.532V155.357C298.17 154.356 299.101 153.856 300.327 153.856C301.59 153.856 302.51 154.388 303.085 155.451C303.735 154.388 304.717 153.856 306.03 153.856Z" fill="#ffffff"/>
        <path d="M317.373 153.856C318.686 153.856 319.806 154.338 320.731 155.301C321.657 156.264 322.119 157.427 322.119 158.79C322.119 160.166 321.657 161.335 320.731 162.298C319.818 163.249 318.699 163.724 317.373 163.724C315.822 163.724 314.64 163.105 313.827 161.867V163.48H312.195V150.348H313.827V155.713C314.64 154.475 315.822 153.856 317.373 153.856ZM317.167 162.148C318.105 162.148 318.893 161.829 319.53 161.191C320.168 160.528 320.487 159.728 320.487 158.79C320.487 157.839 320.168 157.045 319.53 156.407C318.893 155.757 318.105 155.432 317.167 155.432C316.216 155.432 315.422 155.757 314.784 156.407C314.146 157.045 313.827 157.839 313.827 158.79C313.827 159.728 314.146 160.528 314.784 161.191C315.422 161.829 316.216 162.148 317.167 162.148Z" fill="#ffffff"/>
        <path d="M332.734 155.92V150.348H334.46V163.48H332.734V157.571H326.356V163.48H324.611V150.348H326.356V155.92H332.734Z" fill="#ffffff"/>
        
    </symbol>
 

    <symbol id="aduk-white" viewBox="0 0 513 200">
	 
			<path d="M12.386 193.56C8.42154 193.56 5.19824 190.241 5.19824 186.242C5.19824 184.89 5.53044 183.593 6.17474 182.509L57.4265 94.1733L108.671 5.86047C110.013 3.67807 112.306 2 115.087 2C117.885 2 120.044 3.40567 121.482 5.80237L172.754 94.1733C189.87 123.674 206.986 153.174 224.102 182.675C224.714 183.739 224.993 184.971 224.993 186.286C224.993 190.294 221.669 193.56 217.661 193.56H115.09H12.386V193.56Z" stroke="white" stroke-width="2.126"/>
			<path d="M7.73096 171.765C4.08516 171.253 1.55006 167.784 2.06686 164.107C2.24166 162.863 2.71476 161.713 3.44736 160.799L61.9948 86.1905L120.532 11.6015C122.048 9.76799 124.374 8.52115 126.931 8.88055C129.505 9.24225 131.308 10.814 132.321 13.2038L168.049 101.095C179.976 130.436 191.903 159.777 203.83 189.117C204.255 190.174 204.353 191.343 204.183 192.553C203.665 196.239 200.186 198.813 196.5 198.295L102.177 185.038L7.73096 171.765Z" stroke="white" stroke-width="2.126"/>
			<path d="M43.7085 191.881C40.295 192.18 37.2697 189.565 36.9685 186.122C36.8666 184.958 37.055 183.816 37.5281 182.834L75.0019 102.916L112.471 23.0183C113.462 21.0382 115.31 19.4206 117.704 19.2111C120.114 19.0003 122.078 20.048 123.497 22.0033L174.299 94.2287C191.259 118.34 208.218 142.45 225.177 166.561C225.784 167.431 226.117 168.471 226.216 169.603C226.518 173.054 223.902 176.117 220.451 176.418L132.137 184.145L43.7085 191.881V191.881Z" stroke="white" stroke-width="2.126"/>
			<path fill-rule="evenodd" clip-rule="evenodd" d="M181.38 171.917C182.072 171.28 182.509 170.372 182.509 169.366C182.509 168.736 182.375 168.146 182.082 167.636C173.884 153.505 165.685 139.374 157.486 125.243L132.926 82.9115C132.237 81.7632 131.203 81.09 129.862 81.09C128.53 81.09 127.432 81.8939 126.789 82.9393L102.242 125.243L77.6914 167.557C77.3827 168.076 77.2237 168.697 77.2237 169.345C77.2237 170.396 77.6889 171.349 78.4225 171.995L78.4341 172.011L78.4576 172.041L78.4695 172.056L78.4725 172.06L78.4815 172.071L78.4934 172.086L78.5056 172.101L78.5178 172.116L78.53 172.131L78.533 172.134L78.543 172.146L78.5555 172.16L78.5801 172.19L78.5929 172.204L78.5949 172.207L78.6054 172.219L78.6181 172.234L78.6309 172.248L78.6436 172.262L78.6567 172.277L78.6577 172.279L78.6693 172.291L78.6823 172.305L78.6954 172.32L78.7084 172.333L78.7217 172.347L78.7226 172.348L78.7351 172.361L78.7484 172.375L78.762 172.389L78.7753 172.402L78.8025 172.43L78.8164 172.443L78.83 172.457L78.8439 172.47L78.8572 172.483L78.8578 172.483L78.8717 172.497L78.8859 172.51L78.9 172.523L78.9142 172.536L78.927 172.548L78.928 172.549L78.9422 172.562L78.9566 172.574L78.9711 172.587L78.9855 172.6L78.9977 172.611L78.9997 172.613L79.0141 172.625L79.0289 172.638L79.0436 172.65L79.0584 172.663L79.0703 172.673L79.0733 172.675L79.0883 172.687L79.1034 172.699L79.1184 172.711L79.1334 172.723L79.1447 172.732L79.1487 172.735L79.164 172.747L79.1791 172.759L79.1944 172.771L79.21 172.782L79.2207 172.791L79.2257 172.794L79.2413 172.806L79.2566 172.817L79.2721 172.828L79.288 172.84L79.2982 172.847L79.3032 172.851L34.5938 172.851C31.4864 172.851 28.9602 170.249 28.9602 167.115C28.9602 166.055 29.2207 165.039 29.7255 164.189L69.8959 94.9532L110.06 25.7351C111.112 24.0247 112.909 22.7094 115.089 22.7094C117.282 22.7094 118.974 23.8113 120.101 25.6898L160.287 94.9532C173.703 118.075 187.118 141.197 200.533 164.319C201.012 165.153 201.231 166.119 201.231 167.149C201.231 170.291 198.626 172.851 195.485 172.851L180.324 172.851C180.729 172.605 181.087 172.288 181.38 171.917L181.38 171.917Z" fill="white"/>
			<path d="M263.4 133.084L263.54 133.072L272.622 153.14L254.15 153.153L263.4 133.084V133.084ZM253.797 120.053C254.786 120.135 256.233 121.42 256.233 122.573V122.657C256.233 124.46 254.258 128.208 253.546 129.629C252.457 131.8 251.481 134.009 250.382 136.207C248.203 140.564 246.304 144.991 244.11 149.337C243.012 151.513 242.067 153.678 240.975 155.861C239.94 157.93 238.699 160.35 237.812 162.441C236.901 164.589 235.732 166.954 234.676 169.048C233.722 170.938 232.569 173.975 229.86 173.975V175.402H248.674V174.227C248.674 173.757 245.818 173.801 245.818 171.371C245.818 170.06 247.545 167.211 248.013 166.007C248.224 165.463 250.331 160.956 250.605 160.956H276.054C276.341 160.956 278.402 165.387 278.687 165.966C279.183 166.973 280.926 170.286 280.926 171.371V171.707C280.926 173.069 279.419 173.953 278.154 174.059V175.402H299.067V174.227C299.067 173.951 297.622 173.63 297.357 173.501C296.891 173.272 296.295 172.813 295.981 172.441C295.338 171.678 294.558 170.336 294.084 169.383C292.985 167.176 291.927 164.987 290.836 162.804C288.649 158.426 286.545 154.053 284.341 149.646C283.233 147.43 282.196 145.272 281.094 143.066C280.033 140.944 278.779 138.69 277.845 136.488C276.958 134.397 271.519 124.472 271.519 123.077V122.153C271.519 121.03 272.914 120.276 273.87 120.053V118.709H253.797V120.053V120.053Z" stroke="white" stroke-width="1.4173"/>
			<path d="M335.643 165.995H319.097V128.032H336.315C338.916 128.032 342.005 128.657 344.01 129.323C346.42 130.124 347.837 131.383 349.438 132.966C352.24 135.735 353.785 141.127 353.785 146.762V148.777C353.785 150.948 353.027 154.604 352.383 156.195C351.465 158.465 350.572 160.012 348.977 161.607C345.912 164.671 341.706 165.995 335.643 165.995V165.995ZM304.063 120.053C305.583 120.407 306.751 121.122 306.751 122.993V171.119C306.751 172.882 305.49 173.726 304.063 174.058V175.402H336.063C340.551 175.402 345.222 174.979 348.714 173.943C350.806 173.323 351.975 172.819 353.728 171.902C355.571 170.937 356.403 170.022 357.9 168.935C359.85 167.52 362.891 163.161 363.852 160.693C365.094 157.505 366.383 153.425 366.383 149.029V144.914C366.383 141.379 365.114 136.15 363.976 133.715C362.321 130.177 361.096 128.192 358.509 125.575C354.132 121.147 346.862 118.709 338.079 118.709H304.063V120.053V120.053Z" stroke="white" stroke-width="1.4173"/>
			<path d="M417.33 163.024C414.78 164.812 410.605 165.911 406.271 165.911H404.62C400.031 165.911 395.608 164.744 393.052 162.709C390.081 160.343 389.436 156.856 389.436 151.635V122.753C389.436 121.296 390.809 120.06 392.159 120.03V118.71H374.748V120.03C376.183 120.364 377.315 121.047 377.306 122.835C377.297 124.622 377.306 126.412 377.306 128.199C377.306 131.775 377.306 135.351 377.306 138.927C377.306 142.503 377.306 146.079 377.306 149.655C377.306 151.443 377.306 153.231 377.306 155.019C377.306 156.854 377.578 158.236 377.72 159.886C377.805 160.873 378.476 163.315 378.817 164.153C379.43 165.66 379.801 166.443 380.689 167.645C381.979 169.392 384.553 171.351 386.746 172.233C388.127 172.788 389.187 173.215 390.686 173.657C391.679 173.949 393.985 174.584 395.048 174.658C396.565 174.764 398.267 175.12 399.833 175.237C401.306 175.347 403.489 175.409 404.95 175.402C412.023 175.365 418.279 174.509 423.131 172.21C428.256 169.781 431.07 166.279 432.1 159.805C432.967 154.351 432.512 145.161 432.512 138.845C432.512 135.269 432.512 131.693 432.512 128.117C432.512 126.329 432.52 124.54 432.511 122.752C432.503 121.176 433.726 120.142 435.07 120.03V118.71H418.649V120.03C419.882 120.133 421.289 121.175 421.289 122.505V153.038C421.289 157.764 420.111 161.074 417.33 163.024V163.024Z" stroke="white" stroke-width="1.4173"/>
			<path d="M445.121 120.053C446.638 120.407 447.808 121.125 447.808 122.993V171.035C447.808 172.881 446.607 173.712 445.121 174.059V175.402H462.842V174.059C461.476 173.74 460.155 173.046 460.155 171.371L460.188 155.789L468.638 148.946C469.206 149.326 472.616 153.753 473.403 154.679C475.036 156.6 476.505 158.605 478.149 160.516C479.302 161.857 487.367 171.478 487.367 172.463V172.547C487.367 173.464 485.982 173.873 485.184 174.059V175.402H507.357V174.227C507.357 173.905 506.209 173.802 505.94 173.712C505.472 173.556 505.011 173.373 504.602 173.118C503.693 172.549 503.223 172.105 502.505 171.352C501.223 170.009 500.144 168.473 498.895 167.151C498.364 166.59 497.618 165.669 497.144 165.038C496.579 164.285 495.959 163.675 495.397 162.922C494.359 161.529 492.984 160.013 491.841 158.667C489.443 155.843 487.183 153.008 484.785 150.184C483.596 148.783 482.477 147.243 481.258 145.9C480.3 144.846 478.451 142.747 477.709 141.639C478.702 140.974 480.227 139.701 481.173 138.887C482.3 137.918 483.493 137.082 484.616 136.116C486.85 134.194 489.27 132.494 491.503 130.573C492.598 129.63 493.924 128.768 494.947 127.801C495.463 127.314 496.115 126.893 496.67 126.416C497.193 125.966 497.843 125.396 498.37 125.009C500.034 123.786 503.501 120.106 505.845 120.053V118.71H482.664V120.053C483.7 120.053 485.1 120.707 485.1 121.733C485.1 122.825 480.179 126.554 479.17 127.31C477.019 128.921 474.969 130.826 472.853 132.499C470.703 134.199 468.625 135.915 466.515 137.668C465.454 138.55 464.409 139.334 463.367 140.231C462.441 141.028 461.13 142.161 460.155 142.814C460.155 138.587 460.155 134.36 460.155 130.132C460.155 128.004 460.155 125.877 460.155 123.749C460.155 122.605 460.157 121.742 460.72 121.122C461.118 120.684 462.073 120.071 462.842 120.053V118.71H445.121V120.053V120.053Z" stroke="white" stroke-width="1.4173"/>
			<path fill-rule="evenodd" clip-rule="evenodd" d="M268.219 130.817L268.359 130.804L277.441 150.872L258.969 150.885L268.219 130.817V130.817ZM258.616 117.785C259.604 117.868 261.051 119.152 261.051 120.305V120.389C261.051 122.193 259.077 125.94 258.364 127.361C257.276 129.532 256.3 131.741 255.201 133.94C253.021 138.296 251.123 142.724 248.929 147.07C247.83 149.245 246.886 151.41 245.794 153.593C244.759 155.662 243.518 158.082 242.631 160.173C241.72 162.321 240.551 164.686 239.495 166.78C238.541 168.67 237.388 171.707 234.679 171.707V173.135H253.492V171.959C253.492 171.489 250.637 171.533 250.637 169.103C250.637 167.792 252.364 164.944 252.832 163.739C253.043 163.195 255.149 158.688 255.424 158.688H280.873C281.16 158.688 283.221 163.119 283.506 163.698C284.002 164.705 285.745 168.018 285.745 169.103V169.439C285.745 170.801 284.238 171.686 282.973 171.791V173.135H303.886V171.959C303.886 171.683 302.441 171.363 302.176 171.233C301.71 171.004 301.113 170.545 300.8 170.173C300.156 169.41 299.376 168.068 298.902 167.116C297.804 164.908 296.746 162.719 295.655 160.536C293.467 156.158 291.364 151.786 289.16 147.378C288.051 145.162 287.015 143.005 285.912 140.799C284.852 138.676 283.597 136.422 282.664 134.22C281.777 132.129 276.338 122.204 276.338 120.809V119.885C276.338 118.762 277.733 118.008 278.689 117.785V116.442H258.616V117.785Z" fill="white"/>
			<path fill-rule="evenodd" clip-rule="evenodd" d="M340.462 163.728H323.916V125.764H341.134C343.734 125.764 346.824 126.389 348.829 127.056C351.238 127.856 352.655 129.115 354.257 130.699C357.059 133.468 358.603 138.859 358.603 144.494V146.51C358.603 148.68 357.845 152.336 357.202 153.927C356.284 156.197 355.39 157.744 353.795 159.339C350.731 162.403 346.525 163.728 340.462 163.728V163.728ZM308.882 117.785C310.402 118.139 311.569 118.855 311.569 120.725V168.851C311.569 170.614 310.309 171.458 308.882 171.791V173.134H340.882C345.37 173.134 350.041 172.711 353.533 171.675C355.625 171.055 356.794 170.551 358.546 169.634C360.389 168.669 361.221 167.754 362.719 166.667C364.668 165.252 367.71 160.893 368.671 158.425C369.912 155.237 371.202 151.157 371.202 146.762V142.646C371.202 139.112 369.933 133.882 368.794 131.447C367.14 127.909 365.915 125.924 363.328 123.307C358.951 118.879 351.681 116.441 342.897 116.441H308.882V117.785V117.785Z" fill="white"/>
			<path fill-rule="evenodd" clip-rule="evenodd" d="M422.148 160.757C419.599 162.544 415.424 163.644 411.089 163.644H409.439C404.85 163.644 400.427 162.476 397.871 160.441C394.9 158.075 394.255 154.588 394.255 149.368V120.485C394.255 119.028 395.627 117.792 396.978 117.762V116.442H379.566V117.762C381.002 118.097 382.134 118.779 382.125 120.568C382.116 122.355 382.125 124.144 382.125 125.932C382.125 129.508 382.125 133.084 382.125 136.659C382.125 140.235 382.125 143.811 382.125 147.387C382.125 149.175 382.125 150.963 382.125 152.751C382.125 154.586 382.397 155.969 382.539 157.618C382.624 158.606 383.295 161.047 383.636 161.885C384.249 163.392 384.62 164.176 385.507 165.377C386.798 167.124 389.372 169.084 391.565 169.965C392.946 170.52 394.006 170.948 395.505 171.389C396.498 171.681 398.804 172.316 399.867 172.391C401.383 172.496 403.086 172.852 404.652 172.969C406.125 173.079 408.308 173.142 409.769 173.134C416.842 173.097 423.098 172.241 427.95 169.942C433.075 167.514 435.889 164.012 436.919 157.537C437.786 152.083 437.331 142.894 437.331 136.577C437.331 133.001 437.331 129.425 437.331 125.849C437.331 124.061 437.339 122.272 437.33 120.484C437.323 118.909 438.545 117.874 439.889 117.762V116.442H423.468V117.762C424.701 117.865 426.108 118.907 426.108 120.238V150.771C426.108 155.496 424.93 158.806 422.148 160.757V160.757Z" fill="white"/>
			<path fill-rule="evenodd" clip-rule="evenodd" d="M449.939 117.786C451.457 118.139 452.627 118.857 452.627 120.725V168.767C452.627 170.613 451.425 171.445 449.939 171.791V173.135H467.661V171.791C466.295 171.473 464.974 170.779 464.974 169.103L465.006 153.521L473.457 146.678C474.025 147.059 477.435 151.485 478.222 152.411C479.855 154.332 481.324 156.337 482.968 158.248C484.121 159.589 492.186 169.21 492.186 170.195V170.279C492.186 171.196 490.801 171.605 490.003 171.791V173.135H512.176V171.959C512.176 171.638 511.028 171.534 510.758 171.444C510.29 171.289 509.829 171.106 509.421 170.85C508.511 170.281 508.042 169.837 507.323 169.084C506.042 167.741 504.962 166.205 503.713 164.883C503.183 164.322 502.436 163.401 501.963 162.77C501.398 162.017 500.777 161.407 500.216 160.654C499.178 159.261 497.803 157.745 496.66 156.399C494.262 153.576 492.002 150.74 489.604 147.916C488.415 146.515 487.296 144.975 486.077 143.633C485.119 142.578 483.27 140.479 482.527 139.371C483.52 138.706 485.046 137.434 485.991 136.62C487.118 135.65 488.312 134.815 489.435 133.848C491.669 131.926 494.089 130.227 496.322 128.305C497.417 127.363 498.743 126.5 499.766 125.533C500.281 125.046 500.934 124.626 501.489 124.148C502.012 123.698 502.662 123.128 503.189 122.741C504.853 121.518 508.32 117.838 510.664 117.786V116.442H487.483V117.786C488.519 117.786 489.919 118.439 489.919 119.465C489.919 120.557 484.998 124.287 483.989 125.042C481.838 126.653 479.788 128.558 477.672 130.232C475.522 131.932 473.444 133.647 471.334 135.4C470.272 136.282 469.228 137.067 468.186 137.964C467.26 138.76 465.949 139.894 464.974 140.547C464.974 136.319 464.974 132.092 464.974 127.864C464.974 125.737 464.974 123.609 464.974 121.481C464.974 120.337 464.976 119.474 465.539 118.855C465.937 118.416 466.892 117.803 467.661 117.786V116.442H449.939V117.786V117.786Z" fill="white"/>
			
	 </symbol>
    

    <symbol id="nordcom-global-white" viewBox="0 0 1017.012 250.536" fill="white">
    
        <polyline points="14.72 149.556 14.72 104.5 114.054 149.556 114.054 104.5" fill="none" stroke="#ffffff" stroke-linecap="round" stroke-linejoin="round" stroke-width="8"/>
        <rect x="126.804" y="104.5" width="108.25" height="45.056" rx="21.937" ry="21.937" fill="none" stroke="#ffffff" stroke-linecap="round" stroke-linejoin="round" stroke-width="8"/>
        <polyline points="248.054 149.281 248.054 104.5 340.193 104.5" fill="none" stroke="#ffffff" stroke-linecap="round" stroke-linejoin="round" stroke-width="8"/>
        <polyline points="455.558 149.556 353.629 149.556 340.193 124.9 248.054 124.9" fill="none" stroke="#ffffff" stroke-linecap="round" stroke-linejoin="round" stroke-width="8"/>
        <path d="M340.193,104.5a10.2,10.2,0,0,1,0,20.4" fill="none" stroke="#ffffff" stroke-linecap="round" stroke-linejoin="round" stroke-width="8"/>
        <polyline points="455.558 104.5 376.137 104.5 376.137 149.281" fill="none" stroke="#ffffff" stroke-linecap="round" stroke-linejoin="round" stroke-width="8"/>
        <path d="M623.887,149.556H513.442a22.528,22.528,0,1,1,0-45.056h79.82" fill="none" stroke="#ffffff" stroke-linecap="round" stroke-linejoin="round" stroke-width="8"/>
        <path d="M806.168,114.781A10.281,10.281,0,0,0,795.887,104.5H754.481A10.281,10.281,0,0,0,744.2,114.781v34.775" fill="none" stroke="#ffffff" stroke-linecap="round" stroke-linejoin="round" stroke-width="8"/>
        <path d="M806.168,149.556V114.781A10.281,10.281,0,0,1,816.449,104.5h41.406a10.281,10.281,0,0,1,10.281,10.281v34.775H910.8" fill="none" stroke="#ffffff" stroke-linecap="round" stroke-linejoin="round" stroke-width="8"/>
        <path d="M455.558,104.5a22.528,22.528,0,0,1,0,45.056" fill="none" stroke="#ffffff" stroke-linecap="round" stroke-linejoin="round" stroke-width="8"/>
        <rect x="625.886" y="104.5" width="108.25" height="45.056" rx="21.937" ry="21.937" fill="none" stroke="#ffffff" stroke-linecap="round" stroke-linejoin="round" stroke-width="8"/>
        <rect x="545.303" y="170.75" width="108.25" height="45.056" rx="21.937" ry="21.937" fill="none" stroke="#ffffff" stroke-linecap="round" stroke-linejoin="round" stroke-width="8"/>
        <path d="M757.276,193.278a11.264,11.264,0,1,1,0,22.528H666.762V170.75h90.514a11.264,11.264,0,1,1,0,22.528H666.762" fill="none" stroke="#ffffff" stroke-linecap="round" stroke-linejoin="round" stroke-width="8"/>
        <path d="M783.074,215.806V181.031a10.281,10.281,0,0,1,10.281-10.281h80.15a10.281,10.281,0,0,1,10.281,10.281v34.775h129.225" fill="none" stroke="#ffffff" stroke-linecap="round" stroke-linejoin="round" stroke-width="8"/>
        <line x1="783.074" y1="193.278" x2="883.787" y2="193.278" fill="none" stroke="#ffffff" stroke-linecap="round" stroke-linejoin="round" stroke-width="8"/>
        <line x1="914.137" y1="170.75" x2="914.137" y2="215.806" fill="none" stroke="#ffffff" stroke-linecap="round" stroke-linejoin="round" stroke-width="8"/>
        <path d="M338.278,170.75a22.528,22.528,0,1,0,0,45.056" fill="none" stroke="#ffffff" stroke-linecap="round" stroke-linejoin="round" stroke-width="8"/>
        <line x1="338.278" y1="170.75" x2="418.137" y2="170.75" fill="none" stroke="#ffffff" stroke-linecap="round" stroke-linejoin="round" stroke-width="8"/>
        <polyline points="338.278 215.806 418.137 215.806 418.137 193.278" fill="none" stroke="#ffffff" stroke-linecap="round" stroke-linejoin="round" stroke-width="8"/>
        <polyline points="432.512 170.75 432.512 215.806 531.387 215.806" fill="none" stroke="#ffffff" stroke-linecap="round" stroke-linejoin="round" stroke-width="8"/>
        <path d="M17.637,72s33.75-26.75,61.75-43.75C110.579,9.312,131.637,0,131.637,0s29,6.25,78,24.5c48.4,18.026,94,40.75,94,40.75S218.6,37.025,137.714,40.583C71.387,43.5,17.637,72,17.637,72Z" fill="#ffffff"/>
        <path d="M6.637,90s62-40.243,128.25-42c66-1.75,153,21.25,153,21.25l-32.63,14.518L228.887,95.5s-40.178-21.4-95.75-27.25C76.137,62.25,6.637,90,6.637,90Z"/>
        <path d="M285.989,178.359s-33.708,26.8-61.682,43.846c-31.162,18.986-52.206,28.331-52.206,28.331s-29.01-6.205-78.038-24.379C45.637,208.206,0,185.553,0,185.553s85.081,28.093,165.961,24.41C232.283,206.943,285.989,178.359,285.989,178.359Z"/>
        <path d="M296.961,160.342s-61.938,40.339-128.185,42.2c-66,1.852-153.033-21.013-153.033-21.013L48.352,166.96,74.7,155.187s40.211,21.338,95.792,27.1C227.5,188.2,296.961,160.342,296.961,160.342Z"/>

    
    </symbol>
    

    <symbol id="its-white" viewBox="0 0 117 49" fill="white">
    
        <path fill-rule="evenodd" clip-rule="evenodd" d="M2.10259 48.8334C19.8004 46.8483 45.7439 40.496 37.9005 0C7.93481 1.58808 -5.53967 20.645 2.10259 48.8334ZM15.9795 38.0814C13.319 39.0745 10.5686 39.8251 7.93482 40.496C6.0006 21.3065 12.1582 12.9031 31.2638 8.3374C33.6585 21.9566 29.8462 29.4491 23.8229 33.9632V28.7839C20.8353 30.217 19.1256 30.3545 15.9795 28.7839V38.0814ZM20.0017 27.7913C22.2232 27.7913 24.024 26.0138 24.024 23.8211C24.024 21.6285 22.2232 19.851 20.0017 19.851C17.7803 19.851 15.9795 21.6285 15.9795 23.8211C15.9795 26.0138 17.7803 27.7913 20.0017 27.7913Z"/>
        <path d="M44.7383 1.38953L49.565 8.33737H59.0172V47.4438H67.8662V8.33737H77.3184L82.1451 1.38953H44.7383Z"/>
        <path d="M89.3852 34.7391L85.7651 40.2974C91.1952 49.0318 109.405 50.6199 114.725 40.2974C118.096 33.7576 117.742 24.5175 104.066 20.4465C98.0647 18.6599 92.2812 17.4291 94.2119 11.712C95.3515 8.33737 99.7625 7.42422 105.876 9.32991C107.351 10.124 110.502 12.0693 111.306 13.4986C112.754 11.5929 114.457 8.73439 115.128 7.54333C113.318 4.9627 107.686 1.38953 101.251 1.38953C96.4241 1.19102 90.3907 3.17612 87.9774 9.1314C86.8512 11.9105 86.0065 18.0246 88.5807 21.042C90.793 24.0196 94.3325 26.4414 98.8374 27.3943C101.653 27.9898 107.485 29.4588 109.094 32.9526C110.301 36.1287 107.485 40.6944 101.854 40.6944C96.4241 40.6944 92.7638 38.2329 89.3852 34.7391Z"/>
    
    </symbol>
    
</svg>