<svg width="140" height="140" viewBox="0 0 140 140" fill="none" xmlns="http://www.w3.org/2000/svg">
<g clip-path="url(#clip0)">
<path d="M86.2565 57.2168C81.8826 57.2168 78.3247 60.7747 78.3247 65.1476C78.3247 69.5215 81.8826 73.0794 86.2565 73.0794C90.6294 73.0794 94.1873 69.5215 94.1873 65.1476C94.1873 60.7747 90.6294 57.2168 86.2565 57.2168V57.2168ZM86.2565 68.9746C84.1459 68.9746 82.4284 67.2581 82.4284 65.1476C82.4284 63.038 84.1459 61.3205 86.2565 61.3205C88.3661 61.3205 90.0836 63.038 90.0836 65.1476C90.0836 67.2581 88.3661 68.9746 86.2565 68.9746Z" fill="black"/>
<path d="M62.3726 37.3456C61.2639 37.5774 60.5525 38.6647 60.7843 39.7734C60.937 40.5051 61.015 41.2592 61.015 42.0143C61.015 48.0171 56.1305 52.9016 50.1277 52.9016C44.1238 52.9016 39.2404 48.0171 39.2404 42.0143C39.2404 36.0115 44.1238 31.127 50.1277 31.127C52.6186 31.127 54.962 31.9452 56.9049 33.494C57.7914 34.1989 59.0828 34.0536 59.7888 33.1671C60.4948 32.2806 60.3485 30.9892 59.462 30.2832C56.8237 28.1812 53.5083 27.0233 50.1277 27.0233C41.8616 27.0233 35.1367 33.7482 35.1367 42.0143C35.1367 50.2805 41.8616 57.0053 50.1277 57.0053C58.3939 57.0053 65.1187 50.2805 65.1187 42.0143C65.1187 40.9772 65.0119 39.9411 64.8015 38.9339C64.5697 37.8252 63.4824 37.1159 62.3726 37.3456Z" fill="black"/>
<path d="M10.3618 134.667H2.05185C0.918579 134.667 0 135.585 0 136.719C0 137.852 0.918579 138.771 2.05185 138.771H10.3618C11.4951 138.771 12.4136 137.852 12.4136 136.719C12.4136 135.585 11.4951 134.667 10.3618 134.667Z" fill="black"/>
<path d="M31.5083 134.667H23.1994C22.0661 134.667 21.1465 135.585 21.1465 136.719C21.1465 137.852 22.0661 138.771 23.1994 138.771H31.5083C32.6415 138.771 33.5601 137.852 33.5601 136.719C33.5601 135.585 32.6415 134.667 31.5083 134.667Z" fill="black"/>
<path d="M130.642 131.312C131.032 131.766 131.6 132.027 132.199 132.027H137.188C137.907 132.027 138.574 131.651 138.946 131.035C139.317 130.42 139.34 129.655 139.005 129.02L130.668 113.163C130.453 112.756 130.396 112.286 130.506 111.839L134.188 96.9752C134.188 96.9742 134.189 96.9731 134.189 96.972L134.191 96.9656C134.193 96.956 134.195 96.9464 134.197 96.9379C134.207 96.8898 134.217 96.8428 134.226 96.7958C134.228 96.7808 134.229 96.7659 134.231 96.7509C134.231 96.7488 134.232 96.7477 134.232 96.7456C134.233 96.7349 134.235 96.7242 134.236 96.7136C134.24 96.6783 134.244 96.642 134.247 96.6057C134.248 96.5918 134.248 96.5768 134.248 96.5629C134.25 96.5181 134.252 96.4743 134.251 96.4305V92.5671C134.251 91.4339 133.333 90.5153 132.199 90.5153C131.066 90.5153 130.147 91.4339 130.147 92.5671V93.4141L121.229 89.7591L121.41 78.0824L122.58 78.7938C123.548 79.3823 124.81 79.0736 125.399 78.1049C125.987 77.1371 125.68 75.8746 124.711 75.2861L120.461 72.7034C120.445 72.6938 120.429 72.6831 120.412 72.6735L107.01 64.5302C104.847 63.2164 103.502 60.9488 103.289 58.5199L123.748 69.6315C123.859 69.6977 123.968 69.765 124.084 69.8248L124.431 70.0021L127.345 71.5851C129.073 72.5239 130.146 74.3291 130.146 76.2965V84.3266C130.146 85.4599 131.066 86.3785 132.199 86.3785C133.333 86.3785 134.251 85.4599 134.251 84.3266V76.2965C134.251 74.0567 133.459 71.9376 132.08 70.2692C132.898 69.702 133.57 68.9372 134.036 68.0261L136.225 63.7515C136.973 62.2925 137.107 60.6305 136.603 59.07C136.1 57.5095 135.019 56.2384 133.56 55.4918L131.868 54.6245C128.856 53.0821 125.151 54.2773 123.607 57.2894L121.419 61.564C121.123 62.1419 120.926 62.7507 120.825 63.3734L104.595 54.5583C104.912 53.4784 104.644 52.2693 103.801 51.4329L100.183 47.812C99.0194 46.6478 97.1299 46.5773 95.8845 47.6497L92.8008 50.2943C92.6588 50.2313 92.5146 50.1704 92.3693 50.1117L92.1194 46.0123C92.0168 44.3471 90.6293 43.0429 88.962 43.0429H83.8436C82.6762 43.0429 81.6444 43.6902 81.0964 44.6483V38.5376C81.0964 36.6385 79.6139 35.0384 77.7212 34.8932L73.689 34.5856C73.296 33.3412 72.8036 32.1289 72.2161 30.9572L74.9377 27.8821C76.2162 26.4391 76.1489 24.2398 74.786 22.8758L69.5672 17.6559C68.2246 16.3144 66.0435 16.23 64.6037 17.4669L61.5339 20.0998C60.375 19.4963 59.168 18.9847 57.9269 18.5724L57.6769 14.4772C57.5605 12.5525 55.9583 11.0443 54.0293 11.0443H46.6486C44.7506 11.0443 43.1495 12.5269 43.0053 14.4206L42.6977 18.4517C41.3251 18.8843 39.9953 19.4354 38.72 20.0998L35.6513 17.4669C34.2094 16.23 32.0293 16.3133 30.6878 17.6559L25.469 22.8748C24.105 24.2387 24.0388 26.438 25.3162 27.881L28.0389 30.9561C27.4503 32.1268 26.9579 33.3401 26.5659 34.5845L22.5327 34.8921C20.64 35.0374 19.1575 36.6374 19.1575 38.5365V45.9161C19.1575 47.8451 20.6657 49.4473 22.5893 49.5648L26.6856 49.8137C27.0979 51.0548 27.6084 52.2607 28.213 53.4207L25.5801 56.4905C24.3432 57.9314 24.4265 60.1114 25.7691 61.454L30.9879 66.6728C32.3508 68.0368 34.5501 68.103 35.9942 66.8245L39.0693 64.1029C40.2399 64.6904 41.4533 65.1828 42.6977 65.5759L43.0021 69.5642L32.4235 70.6921C32.275 70.7082 32.1244 70.674 31.9962 70.5981L21.879 64.1147C22.8916 63.1331 23.5773 61.8054 23.7194 60.2951L24.1712 55.5131C24.325 53.8811 23.8337 52.2874 22.7891 51.0239C21.7434 49.7613 20.2694 48.9806 18.6373 48.8267L16.7446 48.6473C15.1125 48.4924 13.5178 48.9838 12.2553 50.0294C10.9917 51.0751 10.211 52.5491 10.0571 54.1812L9.60533 58.9621C9.46327 60.4681 9.87663 61.9389 10.761 63.1502C10.4812 63.3862 10.211 63.6404 9.96208 63.9224L9.01146 65.0001C7.27257 66.973 6.30272 69.5076 6.28136 72.1373L6.14677 88.3342L0.849989 129.42C0.774153 130.006 0.954665 130.595 1.34453 131.039C1.73332 131.481 2.29515 131.735 2.88475 131.735H8.19755C9.07234 131.735 9.85206 131.179 10.1373 130.353L23.3263 92.1217L35.5936 104.884C36.2804 105.58 36.4065 106.649 35.9002 107.483C35.8457 107.574 35.7977 107.669 35.7581 107.766L27.5924 127.632H26.5168L30.1281 111.558C30.5041 110.447 30.3214 109.233 29.6293 108.276C29.5769 108.205 29.5214 108.137 29.4616 108.074L25.6783 104.055C24.9018 103.23 23.603 103.191 22.7784 103.967C21.9527 104.744 21.9132 106.042 22.6897 106.868L26.1504 110.544L21.9506 129.234C21.8139 129.842 21.9613 130.48 22.3501 130.967C22.7399 131.453 23.3295 131.736 23.9523 131.736H28.9671C29.7991 131.736 30.5489 131.234 30.8651 130.465L39.4997 109.459C40.8755 107.039 40.4824 103.997 38.5342 102.021L24.5429 87.4658L24.654 79.1431L28.8111 81.4545C29.7051 81.9511 30.7134 82.1477 31.7271 82.0216L42.2053 80.7324C46.4382 80.2122 49.7686 77.0239 50.5985 72.9832H54.0304C55.9583 72.9832 57.5605 71.4751 57.678 69.5503L57.9269 65.4552C59.042 65.0835 60.1304 64.6316 61.1857 64.1019L64.1529 66.7284V67.8542C64.1529 69.5215 65.456 70.9079 67.1223 71.0115L71.2185 71.2614C71.2783 71.4056 71.3392 71.5498 71.4022 71.693L68.7543 74.7787C67.6884 76.0263 67.7621 77.9115 68.921 79.0704L72.5451 82.6977C73.7264 83.8716 75.6277 83.9261 76.8731 82.8227L79.9461 80.1033C80.0903 80.1642 80.2355 80.2229 80.3818 80.2795L80.6905 84.3234C80.8102 85.9662 82.1955 87.2522 83.8436 87.2522H88.962C90.6293 87.2522 92.0158 85.9491 92.1194 84.2828L92.3693 80.1866C92.4355 80.1599 92.5018 80.1321 92.568 80.1044L95.6388 82.8227C96.8842 83.9261 98.7855 83.8716 99.9743 82.6924L103.591 79.0726C104.751 77.9126 104.825 76.0263 103.756 74.7766L101.111 71.693C101.174 71.5509 101.236 71.4067 101.294 71.2614L105.393 71.0115C106.345 70.9528 107.177 70.4732 107.716 69.7618L117.344 75.6119L117.113 90.448L105.589 106.469C104.687 107.723 104.277 109.263 104.435 110.809L106.446 130.186C106.555 131.232 107.436 132.027 108.487 132.027H113.192C114.262 132.027 115.154 131.203 115.238 130.135L116.455 114.658C116.469 114.485 116.504 114.317 116.557 114.156C116.831 114.971 117.261 115.735 117.835 116.402L130.642 131.312ZM124.946 64.9863C124.779 64.4693 124.824 63.9181 125.072 63.4343L127.26 59.1608C127.772 58.1631 128.999 57.7669 129.997 58.2774L131.689 59.1437C132.173 59.3915 132.53 59.8123 132.697 60.3293C132.864 60.8462 132.82 61.3974 132.572 61.8802L130.384 66.1548C130.136 66.6386 129.715 66.9965 129.198 67.1631C128.68 67.3297 128.13 67.2859 127.646 67.0381L126.352 66.3759L125.739 66.0426C125.366 65.7895 125.087 65.4231 124.946 64.9863ZM80.5485 47.8355L80.3818 50.0166C80.1554 50.1042 79.9311 50.1971 79.71 50.2943L78.6323 49.3694C79.4355 49.0916 80.1095 48.5437 80.5485 47.8355ZM13.6919 59.3477L14.1438 54.5668C14.195 54.0263 14.4535 53.5371 14.8711 53.1911C15.2396 52.8867 15.6925 52.7243 16.1646 52.7243C16.2287 52.7243 16.2939 52.7275 16.359 52.7339L18.2517 52.9123C18.7922 52.9636 19.2814 53.222 19.6275 53.6407C19.9735 54.0584 20.1359 54.5871 20.0857 55.1276L19.6339 59.9095C19.5377 60.9296 18.6982 61.7029 17.7016 61.7477C16.8087 61.4658 15.8837 61.3654 14.9737 61.4305C14.1512 61.1069 13.6054 60.2695 13.6919 59.3477ZM6.7353 127.631H5.21858L10.0059 90.5035L19.5879 90.3743L6.7353 127.631ZM41.7043 76.6597L31.2251 77.9489C31.0798 77.9671 30.9345 77.9393 30.8053 77.8677L23.6777 73.905C23.6553 73.8922 23.6329 73.8794 23.6105 73.8676L18.773 71.1781C17.7818 70.6259 16.5331 70.9837 15.982 71.9739C15.4319 72.964 15.7886 74.2137 16.7788 74.7649L20.5802 76.8787L20.4552 86.2567L10.2676 86.3945L10.3861 72.1715C10.3989 70.5287 11.0046 68.9458 12.0908 67.7142L13.0415 66.6365C13.5178 66.095 14.132 65.7457 14.7868 65.5983C14.9042 65.6164 15.0207 65.6378 15.1403 65.6496L16.8578 65.8119C17.002 65.8771 17.1441 65.954 17.2819 66.0426L29.8013 74.0652C29.8109 74.0716 29.8194 74.077 29.829 74.0834C30.7294 74.6388 31.805 74.8834 32.8593 74.7723L46.1936 73.3517C45.3979 75.112 43.7273 76.4108 41.7043 76.6597V76.6597ZM60.4423 59.8412C58.8657 60.7555 57.1824 61.454 55.4382 61.9186C54.5837 62.1461 53.9706 62.8949 53.9172 63.7772L53.6074 68.8795H47.0663L46.6807 63.8348C46.6134 62.9526 45.9885 62.2134 45.1308 61.9998C43.2723 61.5362 41.4832 60.8099 39.8116 59.8412C39.0469 59.3968 38.0845 59.4929 37.4223 60.0793L33.5909 63.4717L28.966 58.8467L32.2611 55.0058C32.8379 54.335 32.918 53.3694 32.463 52.6121C31.4718 50.964 30.7177 49.1846 30.2232 47.325C29.9956 46.4705 29.2469 45.8574 28.3646 45.804L23.2623 45.4932V38.9531L28.307 38.5675C29.1892 38.5002 29.9284 37.8754 30.142 37.0177C30.6045 35.1602 31.3308 33.3701 32.3006 31.6985C32.7439 30.9337 32.6488 29.9713 32.0625 29.3091L28.6701 25.4778L33.2951 20.8528L37.136 24.1479C37.8068 24.7247 38.7713 24.8059 39.5296 24.3498C41.2728 23.302 43.157 22.5212 45.1308 22.0288C45.9896 21.8152 46.6134 21.076 46.6807 20.1938L47.0663 15.1491H53.6074L53.9172 20.2515C53.9706 21.1337 54.5837 21.8825 55.4382 22.11C57.2988 22.6056 59.0772 23.3586 60.7264 24.3498C61.4837 24.8059 62.4482 24.7247 63.12 24.149L66.9599 20.8539L71.5849 25.4778L68.1936 29.3091C67.6072 29.9713 67.5111 30.9337 67.9543 31.6985C68.9242 33.3711 69.6505 35.1602 70.113 37.0177C70.3266 37.8764 71.0668 38.5013 71.948 38.5686L76.9938 38.9531V45.4932L71.8914 45.804C71.0081 45.8574 70.2604 46.4705 70.0329 47.325C69.5373 49.1856 68.7843 50.964 67.793 52.6121C67.337 53.3705 67.4181 54.335 67.9938 55.0058L71.289 58.8467L66.664 63.4717L62.8327 60.0793C62.1705 59.4929 61.207 59.3968 60.4423 59.8412V59.8412ZM99.6934 67.2475C98.8399 67.2998 98.1072 67.8766 97.8562 68.6937C97.6105 69.4969 97.2794 70.2745 96.8757 71.0051C96.4591 71.756 96.5542 72.6852 97.1128 73.3368L100.073 76.7857L97.6971 79.1634L94.2727 76.132C93.6297 75.5627 92.7004 75.4538 91.9442 75.8597C91.2691 76.2196 90.5482 76.5198 89.8016 76.7483C88.9844 76.9994 88.4077 77.731 88.3553 78.5855L88.0766 83.1485H84.7173L84.3702 78.6122C84.305 77.7577 83.7144 77.0335 82.8909 76.7964C82.0769 76.5625 81.2951 76.2474 80.5677 75.8586C79.8115 75.4549 78.8822 75.5638 78.2403 76.132L74.8148 79.1634L72.4393 76.7857L75.4002 73.3368C75.9588 72.6852 76.0528 71.756 75.6373 71.0051C75.2325 70.2745 74.9024 69.4969 74.6568 68.6948C74.4057 67.8766 73.673 67.2998 72.8196 67.2475L68.875 67.0071C69.0107 66.9046 69.1431 66.7956 69.266 66.6728C69.266 66.6728 75.5251 59.4994 75.5518 59.4492C75.9492 58.694 75.8381 57.7711 75.2731 57.1324L73.7798 55.4459L73.7638 55.4266C73.7531 55.4149 73.7424 55.4021 73.7318 55.3903L73.6965 55.3508L72.2652 53.6824L74.6151 51.3304L78.0651 54.2923C78.7167 54.852 79.647 54.947 80.3979 54.5294C81.1744 54.0979 82.0139 53.7508 82.893 53.4976C83.7154 53.2594 84.305 52.5363 84.3702 51.6818L84.7173 47.1466H88.0766L88.3553 51.7117C88.4077 52.5662 88.9834 53.2979 89.8016 53.5489C90.6048 53.7956 91.3824 54.1257 92.113 54.5305C92.8638 54.946 93.7931 54.852 94.4436 54.2923L97.8968 51.3304L100.239 53.6749C100.027 53.8544 99.8504 54.0744 99.7254 54.3254L97.2399 57.1324C96.6706 57.7754 96.5617 58.7025 96.9665 59.4598C97.3542 60.1862 97.6714 60.9691 97.9086 61.7894C98.1478 62.6108 98.8699 63.1972 99.7222 63.2634L100.496 63.3221C101.218 64.7235 102.216 65.986 103.455 67.0189L99.6934 67.2475ZM133.792 127.923H133.141L120.948 113.728C120.506 113.213 120.278 112.556 120.308 111.878L121.078 94.1319L129.781 97.6994L126.523 110.852C126.171 112.275 126.352 113.775 127.035 115.072L133.792 127.923ZM114.374 110.192C113.207 111.269 112.494 112.736 112.363 114.331L111.294 127.923H110.337L108.517 110.39C108.462 109.846 108.605 109.304 108.921 108.865L116.806 97.9034L116.352 108.361L114.374 110.192Z" fill="black"/>
<path d="M137.948 134.667H129.638C128.505 134.667 127.586 135.585 127.586 136.719C127.586 137.852 128.505 138.771 129.638 138.771H137.948C139.081 138.771 140 137.852 140 136.719C140 135.585 139.081 134.667 137.948 134.667Z" fill="black"/>
<path d="M113.503 134.667H105.193C104.06 134.667 103.142 135.585 103.142 136.719C103.142 137.852 104.06 138.771 105.193 138.771H113.503C114.637 138.771 115.555 137.852 115.555 136.719C115.555 135.585 114.637 134.667 113.503 134.667Z" fill="black"/>
<path d="M89.7218 37.5378C97.1153 37.5378 103.918 40.8853 108.399 46.5111L106.868 46.1394C105.766 45.8734 104.657 46.5495 104.39 47.6508C104.123 48.752 104.799 49.8607 105.901 50.1288L112.272 51.6733C113.299 51.9948 114.597 51.5013 114.912 50.2014L116.378 44.1559C116.645 43.0547 115.969 41.946 114.867 41.6779C113.765 41.4119 112.656 42.0869 112.389 43.1892L112.062 44.5372C106.826 37.5902 98.6405 33.4341 89.7218 33.4341C88.5885 33.4341 87.6699 34.3527 87.6699 35.486C87.6699 36.6193 88.5885 37.5378 89.7218 37.5378Z" fill="black"/>
<path d="M10.4037 26.8193C10.5736 28.0199 12.0678 28.8712 13.1883 28.4621L19.9516 25.9915C21.0165 25.6027 21.5645 24.4246 21.1757 23.3608C20.7858 22.2958 19.6077 21.7479 18.5438 22.1367L16.5368 22.8694C22.8003 12.1637 34.259 5.47089 46.9322 5.47089C48.0655 5.47089 48.984 4.55231 48.984 3.41904C48.984 2.28577 48.0655 1.36719 46.9322 1.36719C32.6056 1.36719 19.6696 9.02878 12.7376 21.2459L11.9418 19.0669C11.553 18.0031 10.3738 17.4562 9.31104 17.8439C8.24613 18.2327 7.69819 19.4109 8.08698 20.4758L10.4037 26.8193Z" fill="black"/>
</g>
<defs>
<clipPath id="clip0">
<rect width="140" height="140" fill="white"/>
</clipPath>
</defs>
</svg>
