<svg width="32" height="32" viewBox="0 0 32 32" fill="none" xmlns="http://www.w3.org/2000/svg">
<rect x="1" y="1" width="30" height="30" stroke="white" stroke-width="2"/>
<path d="M20.1997 25L16.6617 20.07C16.507 20.0893 16.2557 20.099 15.9077 20.099H11.9927V25H9.17969V8.52795H15.9077C18.0924 8.52795 19.813 9.04029 21.0697 10.065C22.3264 11.0896 22.9547 12.5106 22.9547 14.328C22.9547 15.5846 22.6357 16.6576 21.9977 17.547C21.379 18.4363 20.4897 19.1033 19.3297 19.548L23.2447 25H20.1997ZM15.7337 17.808C17.1644 17.808 18.247 17.5083 18.9817 16.909C19.7357 16.3096 20.1127 15.4493 20.1127 14.328C20.1127 13.2066 19.7357 12.3463 18.9817 11.747C18.247 11.1476 17.1644 10.848 15.7337 10.848H11.9927V17.808H15.7337Z" fill="white"/>
</svg>
