<svg width="713" height="680" viewBox="0 0 713 680" fill="none" xmlns="http://www.w3.org/2000/svg">
<path d="M457.59 -46.6994C526.47 -36.111 581.13 -20.3756 621.57 0.506999C662.161 20.641 688.915 49.4546 701.833 86.948C715.612 123.802 716.445 172.174 704.332 232.064C694.187 282.223 674.98 322.883 646.712 354.045C619.305 384.568 577.226 398.941 520.476 397.164L519.113 403.902C532.151 408.222 545.369 415.271 558.767 425.05C572.875 434.937 584.654 449.099 594.105 467.533C603.556 485.968 608.524 510.275 609.009 540.454L621.346 788.974L411.51 756.718L406.332 516.245C405.345 492.164 400.359 475.188 391.373 465.316C383.097 455.552 368.662 449.088 348.069 445.922C330.317 443.194 313.629 440.628 298.007 438.227C283.246 435.186 269.12 432.628 255.628 430.554L196.349 723.643L0.360013 693.515L157.075 -81.3162C188.926 -79.5078 218.849 -77.2236 246.846 -74.4637C274.994 -72.4525 305.401 -68.9362 338.066 -63.9149C371.592 -59.5331 411.434 -53.7946 457.59 -46.6994ZM422.441 105.366C386.936 99.9083 354.271 94.887 324.447 90.3024L286.29 278.957L384.284 294.021C421.92 299.806 448.77 297.372 464.836 286.72C480.902 276.067 492.721 252.025 500.292 214.594C508.014 176.413 506.34 150.297 495.271 136.245C484.353 121.445 460.076 111.152 422.441 105.366Z" fill="url(#paint0_linear)" fill-opacity="0.95"/>
<defs>
<linearGradient id="paint0_linear" x1="454.191" y1="39.6592" x2="319.223" y2="899.76" gradientUnits="userSpaceOnUse">
<stop stop-color="#212121" stop-opacity="0"/>
<stop offset="1" stop-color="#171717"/>
</linearGradient>
</defs>
</svg>
