<svg width="190" height="190" viewBox="0 0 190 190" fill="none" xmlns="http://www.w3.org/2000/svg">
<circle cx="95" cy="95" r="94" stroke="#E4E4E4" stroke-width="2"/>
<circle cx="95" cy="95" r="74" stroke="#7E7E7E" stroke-width="2"/>
<circle cx="95" cy="95" r="55" fill="#121212" fill-opacity="0.9"/>
<circle cx="95" cy="95" r="50" fill="#121212"/>
<mask id="mask0" mask-type="alpha" maskUnits="userSpaceOnUse" x="33" y="33" width="124" height="124">
<circle cx="95" cy="95" r="50" transform="rotate(-15 95 95)" fill="#121212"/>
</mask>
<g mask="url(#mask0)">
<path fill-rule="evenodd" clip-rule="evenodd" d="M99.8863 54.5582C98.5234 54.414 95.9376 54.2997 94.14 54.3043C92.342 54.3084 89.0137 54.6809 86.7437 55.1319C84.4739 55.5825 80.7654 56.7646 78.5028 57.7586C74.9964 59.299 74.3415 59.7434 74.0673 60.7671C73.8174 61.6995 73.9359 62.0496 74.5976 62.332C75.1762 62.5788 76.464 62.2156 78.6094 61.201C80.3469 60.379 83.0111 59.3651 84.5301 58.9472C86.0487 58.5296 88.6054 58.031 90.2115 57.8393C91.8178 57.6472 94.2738 57.4873 95.6691 57.483C97.0648 57.4787 100.174 57.8924 102.579 58.4023C105.274 58.974 108.095 59.8429 109.932 60.6673C111.572 61.403 114.308 62.9598 116.013 64.1274C117.718 65.2949 120.162 67.3079 121.444 68.6004C122.725 69.8932 124.671 72.2471 125.768 73.8315C127.122 75.7882 128.056 76.748 128.681 76.8237C129.396 76.91 129.673 76.666 129.923 75.7336C130.197 74.71 129.853 73.9977 127.586 70.9105C126.124 68.9183 123.505 66.0343 121.766 64.5019C120.027 62.9699 116.92 60.7709 114.861 59.616C112.367 58.2177 109.655 57.0658 106.74 56.1681C104.333 55.4266 101.249 54.7023 99.8863 54.5582ZM67.6912 51.1924C66.5655 51.8975 64.6206 53.2666 63.369 54.2343C62.1174 55.2019 60.2825 56.7456 59.292 57.6648C58.301 58.5839 56.6003 60.3953 55.5122 61.6898C53.8575 63.6587 53.2906 64.0577 52.0471 64.1286C51.2296 64.1753 49.9771 64.6211 49.2635 65.1191C48.5503 65.6173 47.7002 66.5396 47.374 67.1686C47.0482 67.7976 46.7551 68.8916 46.7227 69.5993C46.6907 70.3071 46.955 71.5082 47.3111 72.2687C47.9459 73.6256 47.9294 73.7258 46.4337 77.6232C45.3522 80.441 44.7158 82.8162 44.2435 85.7972C43.5901 89.9203 43.5543 90.0154 42.3261 90.873C41.6375 91.3536 40.808 92.2616 40.4818 92.8906C40.156 93.5197 39.8629 94.6137 39.8305 95.3213C39.7985 96.0291 40.0735 97.253 40.4421 98.0409C40.8111 98.829 41.6697 99.8392 42.3506 100.286C43.3964 100.972 43.6829 101.613 44.1984 104.423C44.5341 106.251 45.1707 108.884 45.6134 110.273C46.0556 111.662 47.1801 114.523 48.1125 116.631C49.0444 118.739 50.1744 120.766 50.6238 121.136C51.227 121.634 51.6365 121.72 52.1916 121.464C52.6052 121.274 53.0127 120.859 53.0977 120.542C53.1827 120.225 52.5046 118.37 51.5909 116.422C50.6771 114.473 49.5637 111.793 49.1169 110.468C48.6702 109.142 48.0003 106.579 47.6278 104.772L46.9507 101.487L48.5572 100.415C49.441 99.825 50.2111 99.1676 50.2682 98.9542C50.3254 98.7408 51.2353 98.7977 52.2902 99.0803C54.1539 99.5797 54.3243 99.5272 58.2659 97.2354L62.3233 94.8765L64.7749 95.5334L67.2265 96.1903L68.1036 100.541C68.7945 103.967 69.4416 105.69 71.1499 108.65C72.8648 111.621 74.0003 113.001 76.5693 115.235C78.4972 116.913 81.0116 118.65 82.7516 119.507C84.3645 120.301 86.6038 121.198 87.7274 121.499C88.8509 121.8 91.2385 122.143 93.0327 122.26C94.8269 122.378 97.9316 122.153 99.9318 121.761C101.932 121.369 104.673 120.541 106.024 119.92C107.374 119.3 109.504 118.068 110.756 117.182C112.009 116.297 113.993 114.495 115.167 113.178C116.341 111.861 117.367 110.537 117.448 110.236C117.557 109.831 118.248 109.861 120.079 110.352L122.563 111.018L124.996 115.116C127.395 119.158 127.455 119.221 129.486 119.765C130.618 120.068 131.497 120.491 131.44 120.704C131.383 120.918 131.719 121.867 132.187 122.814L133.037 124.536L130.776 127.082C129.533 128.482 127.39 130.578 126.016 131.739C124.641 132.9 122.359 134.63 120.945 135.583C119.532 136.536 118.296 137.612 118.199 137.974C118.102 138.336 118.334 138.924 118.715 139.282C119.148 139.687 119.691 139.86 120.158 139.741C120.571 139.637 122.198 138.659 123.775 137.569C125.351 136.479 127.801 134.56 129.218 133.304C130.636 132.049 132.776 129.869 133.974 128.461C135.814 126.3 136.383 125.887 137.631 125.816C138.444 125.77 139.693 125.324 140.406 124.826C141.12 124.328 141.97 123.406 142.296 122.777C142.622 122.148 142.915 121.054 142.947 120.346C142.979 119.638 142.715 118.437 142.359 117.677C141.724 116.32 141.741 116.22 143.236 112.322C144.318 109.504 144.954 107.129 145.426 104.148C146.08 100.025 146.116 99.9301 147.344 99.0724C148.032 98.5919 148.862 97.6838 149.188 97.0548C149.514 96.4258 149.807 95.3318 149.839 94.6241C149.871 93.9163 149.596 92.6925 149.228 91.9045C148.859 91.1164 148 90.1062 147.319 89.6593C146.274 88.9733 145.987 88.3322 145.472 85.5225C145.136 83.694 144.499 81.0612 144.057 79.6723C143.614 78.283 142.49 75.4221 141.557 73.3144C140.626 71.2068 139.496 69.1793 139.046 68.809C138.443 68.3114 138.033 68.2258 137.478 68.4811C137.065 68.6714 136.657 69.0864 136.572 69.4035C136.487 69.7206 137.165 71.575 138.079 73.5239C138.993 75.4724 140.106 78.152 140.553 79.4774C141 80.8032 141.67 83.3662 142.042 85.1731L142.719 88.4582L141.113 89.5306C140.229 90.1204 139.459 90.7778 139.402 90.9912C139.345 91.2046 138.435 91.1478 137.38 90.8651C135.516 90.3657 135.346 90.4183 131.404 92.71L127.347 95.069L124.895 94.412L122.443 93.7551L121.566 89.4046C120.875 85.978 120.228 84.2556 118.52 81.2955C116.82 78.3502 115.649 76.9217 113.106 74.6895C111.037 72.8735 108.779 71.3211 106.871 70.4042C105.227 69.6133 102.985 68.7263 101.89 68.4329C100.795 68.1395 98.4297 67.8093 96.6336 67.6989C94.8374 67.5885 91.733 67.8121 89.7352 68.1956C87.7374 68.5791 84.9618 69.4219 83.5676 70.0683C82.173 70.7147 80.0387 71.9468 78.8243 72.806C77.6099 73.6652 75.4886 75.6655 74.1103 77.2505L71.6041 80.1328L69.2863 79.5117L66.9688 78.8908L64.3942 74.7548C61.9488 70.8262 61.7276 70.5942 59.9728 70.124C58.9569 69.8518 58.1726 69.4547 58.2298 69.2413C58.287 69.0279 57.9488 68.0735 57.4783 67.1209L56.6232 65.3888L58.8522 62.8824C60.0782 61.5038 61.9399 59.6192 62.9896 58.6944C64.0393 57.7699 66.3432 56.006 68.1089 54.7755C69.8747 53.5445 71.3932 52.2619 71.4834 51.9256C71.5736 51.5888 71.3479 51.0329 70.9817 50.6892C70.6154 50.346 70.1858 50.0301 70.0267 49.9875C69.8675 49.9449 68.8165 50.4873 67.6912 51.1924ZM103.647 75.4732C103.951 75.851 104.2 76.7046 104.199 77.37C104.199 78.3348 104.625 78.9025 106.304 80.1736C108.186 81.5979 108.516 81.7293 109.399 81.4076C109.942 81.2098 110.719 81.1368 111.125 81.2455C111.531 81.3544 112.598 82.6374 113.495 84.097C114.633 85.9474 115.045 87.058 114.855 87.7657C114.705 88.3244 114.238 89.0039 113.817 89.2761C113.139 89.7142 113.088 90.0742 113.381 92.4149C113.644 94.5269 113.921 95.1801 114.759 95.6629C115.335 95.9952 115.95 96.6373 116.125 97.0895C116.304 97.5519 116.131 99.077 115.731 100.572C115.33 102.066 114.717 103.474 114.331 103.784C113.953 104.089 113.1 104.337 112.434 104.337C111.47 104.337 110.903 104.762 109.638 106.434C108.173 108.369 108.079 108.617 108.419 109.649C108.634 110.3 108.582 111.134 108.297 111.648C108.027 112.133 106.68 113.13 105.305 113.865C103.886 114.622 102.418 115.097 101.914 114.962C101.424 114.83 100.801 114.378 100.529 113.957C100.091 113.279 99.7313 113.228 97.3909 113.521C95.2792 113.785 94.626 114.062 94.1433 114.899C93.8109 115.476 93.1689 116.091 92.7167 116.266C92.2544 116.445 90.7295 116.272 89.2351 115.872C87.7406 115.471 86.3337 114.858 86.0228 114.472C85.7188 114.094 85.4703 113.241 85.4707 112.575C85.4713 111.611 85.0454 111.043 83.3656 109.772C81.484 108.348 81.1544 108.216 80.2714 108.538C79.7283 108.736 78.9511 108.809 78.5453 108.7C78.139 108.591 77.0723 107.308 76.1747 105.848C75.0369 103.998 74.6252 102.887 74.8148 102.18C74.9645 101.621 75.4317 100.942 75.853 100.669C76.5312 100.231 76.5816 99.8712 76.2892 97.5306C76.0256 95.4185 75.7484 94.7653 74.9113 94.2826C74.335 93.9502 73.7201 93.3082 73.545 92.8559C73.3661 92.3936 73.5387 90.8684 73.9392 89.3737C74.3397 87.879 74.9528 86.4719 75.3389 86.1609C75.7167 85.8568 76.5702 85.6082 77.2355 85.6086C78.1997 85.6089 78.7673 85.1834 80.0322 83.5119C81.4971 81.5762 81.591 81.3287 81.2511 80.2968C81.0363 79.6456 81.0876 78.8112 81.3733 78.2976C81.6429 77.8125 82.9894 76.8151 84.365 76.0809C85.7838 75.3234 87.2517 74.8488 87.756 74.9839C88.2455 75.115 88.8686 75.5672 89.1407 75.9886C89.5787 76.6668 89.9386 76.7171 92.279 76.4246C94.3908 76.1608 95.0439 75.8835 95.5267 75.0462C95.859 74.4697 96.501 73.8547 96.9532 73.6795C97.4155 73.5006 98.9404 73.6731 100.435 74.0736C101.929 74.474 103.336 75.087 103.647 75.4732ZM98.5855 77.2929C98.3868 77.4077 98.0878 78.0108 97.9211 78.6329C97.6778 79.5412 97.3882 79.7522 96.4497 79.7041C95.8068 79.6714 94.4475 79.7117 93.4281 79.7935C92.4093 79.875 90.8432 80.1967 89.9485 80.5075L88.3214 81.073L87.724 80.0381C87.373 79.4305 86.8327 79.0342 86.4149 79.0778C86.0231 79.1188 85.5136 79.4131 85.2822 79.7318C85.0356 80.072 85.1086 80.7381 85.4591 81.3459L86.0565 82.3809L84.7533 83.5075C84.0369 84.1271 82.9753 85.3227 82.3953 86.1645C81.8147 87.0066 81.106 88.1534 80.8203 88.7135C80.404 89.5294 80.0348 89.6872 78.9626 89.508C77.8442 89.3212 77.5799 89.4494 77.3549 90.2889C77.1299 91.1285 77.2948 91.3717 78.3567 91.7691C79.3749 92.1501 79.6157 92.4713 79.5683 93.3861C79.5357 94.014 79.5761 95.3615 79.6578 96.381C79.7392 97.4 80.0607 98.9663 80.3714 99.8611L80.9367 101.488L79.9018 102.086C79.2944 102.437 78.8981 102.977 78.9416 103.395C78.9826 103.787 79.2768 104.297 79.5955 104.528C79.9355 104.775 80.6016 104.702 81.2093 104.351L82.2442 103.753L83.3705 105.057C83.99 105.773 85.1854 106.835 86.027 107.415C86.8689 107.995 88.0155 108.704 88.5755 108.99C89.3912 109.406 89.549 109.775 89.3697 110.848C89.1828 111.966 89.311 112.231 90.1504 112.456C90.9899 112.681 91.233 112.516 91.6305 111.454C92.0114 110.435 92.3327 110.194 93.2473 110.242C93.8751 110.274 95.2224 110.234 96.2418 110.152C97.2607 110.07 98.8267 109.749 99.7214 109.438L101.349 108.872L101.946 109.907C102.297 110.515 102.837 110.911 103.255 110.868C103.647 110.827 104.156 110.532 104.388 110.214C104.634 109.873 104.561 109.207 104.211 108.6L103.613 107.565L104.917 106.438C105.633 105.818 106.695 104.623 107.275 103.781C107.855 102.939 108.564 101.792 108.85 101.232C109.266 100.416 109.635 100.258 110.707 100.437C111.826 100.624 112.09 100.496 112.315 99.6565C112.54 98.8169 112.375 98.5737 111.313 98.1763C110.295 97.7954 110.054 97.4741 110.102 96.5594C110.134 95.9315 110.094 94.584 110.012 93.5644C109.931 92.5454 109.609 90.9792 109.299 90.0844L108.733 88.4571L109.768 87.8595C110.376 87.5084 110.772 86.968 110.728 86.5501C110.687 86.1583 110.393 85.6488 110.074 85.4173C109.734 85.1707 109.068 85.2438 108.461 85.5944L107.426 86.192L106.299 84.8887C105.68 84.1722 104.485 83.1106 103.643 82.5305C102.801 81.95 101.654 81.2413 101.094 80.9555C100.279 80.5393 100.121 80.17 100.3 79.0976C100.464 78.1173 100.313 77.6687 99.7354 77.4218C99.3015 77.2362 98.7841 77.1786 98.5855 77.2929ZM99.6788 83.0031C99.873 83.3395 99.9446 83.9402 99.838 84.3381C99.7314 84.736 99.9226 85.1361 100.263 85.2273C100.603 85.3185 101.476 85.9283 102.201 86.5828C103.433 87.6924 103.578 87.7397 104.369 87.2834C105.159 86.8267 105.28 86.9043 106.162 88.4316C107.044 89.9592 107.051 90.1028 106.26 90.559C105.47 91.0158 105.438 91.1657 105.783 92.787C105.987 93.7427 106.078 94.8033 105.987 95.1437C105.884 95.5288 106.185 95.8601 106.783 96.0203C107.312 96.162 107.778 96.5936 107.818 96.9792C107.859 97.3648 107.784 98.0815 107.653 98.5718C107.521 99.0621 107.139 99.6221 106.802 99.8163C106.466 100.01 105.866 100.082 105.468 99.9756C105.07 99.869 104.67 100.06 104.579 100.401C104.487 100.741 103.878 101.614 103.223 102.339C102.114 103.571 102.066 103.717 102.522 104.508C102.979 105.298 102.901 105.419 101.374 106.301C99.8468 107.183 99.7032 107.19 99.2471 106.399C98.7905 105.608 98.6406 105.576 97.0195 105.922C96.0639 106.126 95.0034 106.218 94.663 106.126C94.3227 106.035 93.957 106.286 93.8504 106.684C93.7438 107.082 93.3814 107.566 93.0451 107.761C92.7088 107.955 92.0326 108.006 91.5424 107.875C91.0521 107.744 90.3944 107.45 90.0807 107.222C89.7671 106.994 89.6264 106.375 89.7681 105.846C89.9283 105.248 89.7919 104.821 89.407 104.718C89.0666 104.627 88.1942 104.017 87.4686 103.363C86.2373 102.253 86.0915 102.206 85.3008 102.662C84.5104 103.119 84.3895 103.041 83.5076 101.514C82.6261 99.9862 82.6193 99.8427 83.41 99.3864C84.2004 98.9297 84.2324 98.7797 83.8873 97.1585C83.6834 96.2027 83.5916 95.1421 83.6828 94.8017C83.774 94.4613 83.5232 94.0955 83.1253 93.9889C82.7275 93.8823 82.2432 93.52 82.049 93.1836C81.8549 92.8473 81.8221 92.1019 81.9761 91.5272C82.1301 90.9525 82.5312 90.3233 82.8675 90.1291C83.2038 89.935 83.8044 89.8633 84.2022 89.9699C84.6001 90.0765 85.0002 89.8852 85.0914 89.5448C85.1826 89.2043 85.7924 88.3317 86.4469 87.606C87.5564 86.3745 87.6037 86.2286 87.1475 85.4379C86.6909 84.6474 86.7685 84.5265 88.2957 83.6443C89.8232 82.7625 89.9667 82.7558 90.4228 83.5465C90.8794 84.337 91.0294 84.369 92.6504 84.0237C93.6061 83.8197 94.6665 83.7278 95.0069 83.819C95.3472 83.9102 95.7129 83.6592 95.8196 83.2613C95.9262 82.8635 96.2886 82.379 96.6248 82.1848C96.9611 81.9906 97.7064 81.9577 98.2811 82.1117C98.8557 82.2657 99.4847 82.6668 99.6788 83.0031ZM62.2536 77.6273L64.6856 81.7251L67.3466 82.4381C69.615 83.0459 69.979 83.2546 69.8135 83.8529C69.707 84.2392 69.4014 84.9327 69.1352 85.3942C68.6899 86.1657 68.418 86.1708 65.7845 85.463C63.0418 84.7255 62.9039 84.6343 62.5675 83.3454C62.374 82.6047 61.8346 81.5716 61.3684 81.0499C60.9023 80.5278 59.8587 79.8338 59.0486 79.5073C58.0839 79.1183 57.0343 79.0361 56.0042 79.2688C55.1396 79.464 53.9645 79.9999 53.3926 80.4596C52.8207 80.919 52.0765 81.9795 51.7386 82.8164C51.3281 83.8342 51.2424 84.8579 51.48 85.9098C51.6751 86.7745 52.2448 87.9933 52.7462 88.6182C53.3642 89.3882 54.2692 89.9184 55.5546 90.2629C56.7184 90.5747 57.9634 90.6025 58.7754 90.335C59.5033 90.0954 60.5389 89.4532 61.0768 88.9086C62.0127 87.9601 62.1773 87.9503 64.9257 88.6842C67.1745 89.2846 67.8128 89.603 67.8703 90.1521C67.9108 90.5377 67.8266 91.2905 67.6834 91.8251C67.4342 92.7551 67.3085 92.7662 64.762 92.0839L62.101 91.3708L57.946 93.7036C54.5526 95.6085 53.5612 95.9748 52.5393 95.701C51.65 95.4627 51.2766 95.1188 51.249 94.5127C51.2275 94.0434 50.7934 93.0626 50.2839 92.3329C49.7745 91.6028 48.7838 90.7304 48.0827 90.3943C46.8736 89.8145 46.8235 89.6705 47.1141 87.6407C47.2829 86.4626 47.784 84.1424 48.2282 82.4845C48.6725 80.8266 49.3986 78.5667 49.8415 77.462C50.6047 75.5588 50.7201 75.4592 52.0571 75.5616C52.8323 75.6211 54.1265 75.3609 54.9327 74.9834C55.7388 74.6062 56.6051 73.9738 56.8584 73.5782C57.1853 73.067 57.6807 72.9559 58.5699 73.1942C59.5918 73.468 60.2673 74.2809 62.2536 77.6273ZM138.421 95.4328C138.442 95.902 138.876 96.8829 139.386 97.6126C139.895 98.3426 140.886 99.215 141.587 99.5511C142.796 100.131 142.846 100.275 142.556 102.305C142.387 103.483 141.886 105.803 141.442 107.461C140.997 109.119 140.271 111.379 139.828 112.483C139.065 114.387 138.95 114.486 137.613 114.384C136.838 114.324 135.543 114.585 134.737 114.962C133.931 115.339 133.065 115.972 132.811 116.367C132.485 116.878 131.989 116.99 131.1 116.751C130.078 116.477 129.403 115.665 127.416 112.318L124.984 108.22L122.323 107.507C120.055 106.9 119.691 106.691 119.856 106.093C119.963 105.706 120.268 105.013 120.535 104.551C120.98 103.78 121.252 103.775 123.885 104.482C126.628 105.22 126.766 105.311 127.102 106.6C127.296 107.341 127.872 108.415 128.382 108.986C128.952 109.624 130.044 110.222 131.208 110.534C132.493 110.878 133.542 110.872 134.462 110.514C135.209 110.223 136.312 109.453 136.913 108.801C137.645 108.009 138.082 107.08 138.236 105.993C138.361 105.1 138.247 103.809 137.982 103.125C137.716 102.441 136.966 101.389 136.315 100.788C135.54 100.072 134.59 99.618 133.56 99.4725C132.695 99.3502 131.444 99.4294 130.779 99.6485C130.115 99.8671 129.131 100.492 128.593 101.037C127.657 101.985 127.492 101.995 124.748 101.262C122.114 100.559 121.881 100.418 121.881 99.5274C121.881 98.9946 121.963 98.2412 122.064 97.8534C122.22 97.2525 122.64 97.2538 124.912 97.8628L127.578 98.577L131.699 96.2417C135.098 94.3162 136.045 93.9658 137.102 94.2432C138.022 94.4851 138.393 94.8193 138.421 95.4328ZM93.0318 87.0736C91.0551 87.5148 90.2674 87.9697 88.897 89.4613C87.9175 90.5273 87.0332 91.9419 86.7981 92.8193C86.5631 93.6966 86.6215 95.3638 86.9368 96.7768C87.3778 98.7537 87.8326 99.5415 89.3238 100.912C90.3896 101.892 91.8039 102.776 92.6812 103.011C93.5584 103.246 95.2254 103.187 96.6381 102.872C98.6148 102.431 99.4025 101.976 100.773 100.484C101.752 99.4182 102.637 98.0035 102.872 97.1262C103.107 96.2488 103.048 94.5816 102.733 93.1687C102.292 91.1917 101.837 90.4039 100.346 89.0334C99.2803 88.0539 97.866 87.1696 96.9888 86.9346C96.1116 86.6995 94.4446 86.7582 93.0318 87.0736ZM98.3162 91.3192C98.7511 91.7394 99.3139 92.7074 99.5678 93.4698C99.8213 94.2325 99.8591 95.4897 99.6518 96.2634C99.4445 97.0371 98.7832 98.1069 98.1823 98.6407C97.5811 99.174 96.6097 99.7309 96.0231 99.8774C95.4368 100.024 94.3225 99.9796 93.5472 99.7787C92.7719 99.5779 91.7009 98.9217 91.1672 98.3208C90.634 97.7196 90.0773 96.7481 89.9309 96.1614C89.7844 95.5751 89.8341 94.462 90.0414 93.6883C90.2487 92.9146 90.7622 91.9258 91.1822 91.4912C91.6024 91.0563 92.5703 90.4933 93.3326 90.2393C94.0953 89.9857 95.3509 89.953 96.1227 90.1667C96.8946 90.3804 97.8818 90.8991 98.3162 91.3192ZM93.7172 93.0363C93.3809 93.2305 92.9798 93.8596 92.8258 94.4344C92.6718 95.0091 92.7046 95.7545 92.8987 96.0908C93.0929 96.4271 93.7219 96.8283 94.2965 96.9823C94.8711 97.1362 95.6164 97.1033 95.9527 96.9091C96.289 96.7149 96.6902 96.0858 96.8442 95.5111C96.9982 94.9364 96.9653 94.191 96.7712 93.8546C96.577 93.5183 95.9481 93.1172 95.3734 92.9632C94.7988 92.8092 94.0535 92.8421 93.7172 93.0363ZM59.9206 113.377C59.7132 113.662 59.5186 114.24 59.4883 114.66C59.4583 115.081 60.628 117.052 62.0883 119.041C63.5482 121.03 66.1653 123.911 67.9038 125.444C69.6425 126.976 72.7447 129.194 74.7977 130.372C78.018 132.221 79.3305 132.73 84.3571 134.077C89.3837 135.424 90.7748 135.639 94.4879 135.648C96.8552 135.654 100.651 135.284 102.923 134.827C105.194 134.369 108.905 133.181 111.167 132.187C114.674 130.646 115.328 130.202 115.603 129.178C115.853 128.246 115.734 127.896 115.072 127.613C114.494 127.367 113.206 127.73 111.061 128.744C109.323 129.566 106.659 130.58 105.14 130.998C103.621 131.416 101.053 131.916 99.4317 132.109C97.8112 132.303 95.2567 132.469 93.7553 132.479C91.7454 132.491 89.4895 132.084 85.199 130.935C80.9086 129.785 78.7515 129.009 77.017 127.994C75.7216 127.235 73.5923 125.814 72.2858 124.836C70.9788 123.858 69.0043 122.14 67.898 121.019C66.7914 119.898 65.0018 117.703 63.9206 116.141C62.8395 114.579 61.5824 113.201 61.1267 113.079C60.671 112.957 60.1282 113.091 59.9206 113.377Z" fill="white"/>
</g>
</svg>
