<svg width="190" height="190" viewBox="0 0 190 190" fill="none" xmlns="http://www.w3.org/2000/svg">
<circle cx="95" cy="95" r="94" stroke="#E4E4E4" stroke-width="2"/>
<circle cx="95" cy="95" r="74" stroke="#7E7E7E" stroke-width="2"/>
<circle cx="95" cy="95" r="55" fill="#121212" fill-opacity="0.9"/>
<circle cx="95" cy="95" r="50" fill="#121212"/>
<mask id="mask0" mask-type="alpha" maskUnits="userSpaceOnUse" x="45" y="45" width="100" height="100">
<circle cx="95" cy="95" r="50" fill="#121212"/>
</mask>
<g mask="url(#mask0)">
<path fill-rule="evenodd" clip-rule="evenodd" d="M82.4637 19.2617C79.2643 19.9325 74.9014 21.111 72.7684 21.8805C70.6354 22.6493 66.8542 24.2961 64.3658 25.5404C61.8773 26.784 58.1188 28.968 56.0129 30.3936C53.9077 31.8197 49.9049 35.1603 47.1178 37.8172C44.3307 40.4747 40.6264 44.5661 38.8858 46.9095C37.1458 49.2529 34.51 53.4127 33.0285 56.1547C31.5477 58.8961 29.5188 63.5403 28.5208 66.4752C27.5222 69.4094 26.3097 73.5524 25.8249 75.681C25.2516 78.1999 24.9652 83.3794 25.0034 90.5167C25.0551 100.139 25.2664 102.247 26.7272 107.72C27.6431 111.15 29.4031 116.284 30.6383 119.13C31.8741 121.974 34.552 126.86 36.5899 129.985C38.6279 133.111 42.8027 138.156 45.8671 141.195C48.9315 144.235 53.964 148.385 57.0497 150.417C60.136 152.449 65.0315 155.137 67.9285 156.39C70.8255 157.643 76.0079 159.414 79.4453 160.327C85.011 161.804 86.9346 161.987 97.0067 161.999C107.142 162.012 108.962 161.841 114.506 160.356C117.909 159.445 122.953 157.761 125.713 156.614C128.474 155.467 133.288 152.854 136.41 150.808C139.534 148.761 144.21 145.098 146.803 142.668C149.395 140.237 153.234 135.946 155.333 133.131C157.433 130.317 160.584 125.085 162.335 121.506C164.087 117.926 166.307 112.102 167.268 108.563C168.875 102.643 169.013 101.172 168.999 90.1942C168.985 79.3687 168.826 77.6761 167.285 71.9547C166.35 68.4857 164.283 62.903 162.691 59.5482C161.098 56.1934 158.3 51.2899 156.472 48.6511C154.644 46.0129 150.478 41.2868 147.216 38.1494C143.952 35.0126 139.682 31.3979 137.727 30.1168C135.772 28.8365 131.836 26.6195 128.981 25.1908C126.126 23.7627 121.327 21.8508 118.316 20.9432C115.306 20.035 110.952 18.9927 108.641 18.6263C106.33 18.2606 100.804 17.9787 96.3604 18.0013C91.0622 18.0277 86.2785 18.4618 82.4637 19.2617ZM112.024 28.2108C114.773 28.9216 119.02 30.3407 121.462 31.365C123.905 32.3886 128.361 34.8262 131.366 36.7806C134.371 38.7351 138.948 42.482 141.537 45.1073C144.126 47.7319 147.522 51.7969 149.083 54.1403C150.645 56.4837 152.944 60.5499 154.194 63.1765C155.444 65.8031 157.228 70.8517 158.16 74.3968C159.57 79.7673 159.864 82.3461 159.92 89.8717C159.975 97.2127 159.719 99.9651 158.556 104.583C157.769 107.707 156.199 112.481 155.069 115.191C153.938 117.901 151.347 122.601 149.31 125.636C147.273 128.671 143.47 133.206 140.859 135.715C138.247 138.224 134.256 141.526 131.989 143.052C129.721 144.578 125.764 146.796 123.195 147.981C120.626 149.165 116.373 150.717 113.744 151.429C111.115 152.141 106.274 153.044 102.986 153.435C98.6246 153.955 95.3889 153.955 91.0279 153.435C87.7393 153.044 82.8981 152.141 80.2694 151.429C77.6406 150.717 73.3876 149.165 70.8183 147.981C68.2491 146.796 64.3613 144.617 62.1785 143.137C59.9958 141.658 56.3322 138.695 54.037 136.552C51.7418 134.41 48.4299 130.721 46.6776 128.357C44.926 125.993 42.3147 121.721 40.8746 118.865C39.4352 116.009 37.5013 111.074 36.5783 107.9C35.6547 104.725 34.6166 99.1665 34.2715 95.5479C33.8584 91.2224 33.8662 87.0252 34.2921 83.2924C34.6489 80.1704 35.5416 75.4585 36.2765 72.8216C37.0107 70.1847 38.5781 65.9405 39.759 63.39C40.9399 60.8396 43.1569 56.9017 44.6868 54.6389C46.2161 52.3761 49.5242 48.3886 52.0385 45.7781C54.5528 43.1671 58.387 39.76 60.5587 38.2068C62.7311 36.6536 66.8032 34.2366 69.6077 32.8356C72.4129 31.4353 77.0343 29.6511 79.8783 28.8713C82.7223 28.0908 86.5035 27.2174 88.2809 26.9298C90.0584 26.6421 95.003 26.5215 99.269 26.6627C104.154 26.8233 108.875 27.3968 112.024 28.2108ZM81.7922 41.3332C81.9693 42.1311 82.5743 46.4129 83.1359 50.8474C83.6976 55.282 84.2722 59.2631 84.4125 59.694C84.5566 60.1358 86.3057 58.8432 88.4199 56.7333C91.1592 53.9997 93.1027 52.6806 95.6197 51.8459C97.5342 51.2119 100.909 50.7139 103.206 50.7268C106.372 50.7455 108.217 51.1712 111.063 52.5419C113.108 53.5269 114.957 54.4299 115.171 54.5473C115.386 54.6653 115.745 52.7928 115.97 50.3856C116.194 47.979 116.567 44.6306 116.798 42.9458L117.22 39.8819H99.3446H81.4696L81.7922 41.3332ZM99.4099 56.0767C98.0648 56.3869 96.1309 57.0713 95.1116 57.5976C94.0923 58.1233 92.258 59.7204 91.0351 61.146C89.8121 62.5715 88.4742 64.8626 88.0618 66.2365C87.6488 67.6111 87.3114 69.8293 87.3114 71.1658C87.3114 72.5023 87.6488 74.7206 88.0618 76.0951C88.4742 77.4691 89.7837 79.7267 90.9717 81.1122C92.1597 82.497 94.3864 84.2367 95.9196 84.9772C97.7953 85.8835 99.9742 86.324 102.578 86.324C105.464 86.324 107.318 85.8918 109.866 84.6244C111.885 83.6207 114.029 81.8991 115.102 80.4194C116.102 79.0423 117.277 76.4318 117.713 74.6187C118.335 72.0334 118.337 70.573 117.725 67.8433C117.283 65.8727 116.052 63.1959 114.888 61.6723C113.756 60.192 111.525 58.3381 109.928 57.5519C108.332 56.7662 105.862 55.9857 104.44 55.818C103.018 55.6497 100.754 55.7664 99.4099 56.0767ZM123.507 71.3709C123.507 72.3714 123.046 74.738 122.483 76.6305C121.92 78.523 120.777 81.1502 119.943 82.4687C119.109 83.7871 117.375 85.7312 116.09 86.7884L113.753 88.7106L119.515 93.9599L125.276 99.2097L126.369 96.3555C126.969 94.7855 128.59 92.4834 129.97 91.2391C131.373 89.9749 133.512 88.7835 134.82 88.5384C136.108 88.2978 138.49 88.2501 140.113 88.4326L143.065 88.7648L133.456 79.159C128.171 73.8756 123.77 69.5533 123.677 69.5533C123.584 69.5533 123.507 70.3712 123.507 71.3709ZM74.0501 85.2984C73.9325 85.6848 73.5111 87.0587 73.1136 88.3507C72.4775 90.418 72.0341 90.7895 69.4132 91.4481C66.524 92.1738 66.3753 92.1376 64.4007 90.2277C63.2812 89.1447 62.088 88.2636 61.7493 88.2688C61.4113 88.2739 60.0145 89.2234 58.6468 90.3787L56.1596 92.4789L57.592 95.4215L59.0243 98.3641L57.3244 101.052C55.7466 103.546 55.417 103.74 52.7611 103.74C51.1872 103.74 49.7672 103.958 49.6056 104.224C49.444 104.489 49.2087 106.148 49.0827 107.907L48.8532 111.107L51.789 111.939C54.5302 112.715 54.779 112.97 55.532 115.78C56.3355 118.777 56.3296 118.799 54.0907 121.101L51.8426 123.413L54.2477 126.214L56.6535 129.015L59.5614 127.605L62.47 126.195L64.795 127.563C66.4063 128.512 67.2427 129.545 67.5206 130.93C67.7404 132.029 67.9207 133.617 67.9207 134.459C67.9207 135.756 68.2433 135.993 70.0214 136C71.1764 136.005 72.7445 136.176 73.5052 136.38C74.6965 136.698 75.0352 136.311 75.9375 133.599C76.9167 130.657 77.1843 130.396 79.994 129.646C82.9873 128.848 83.0131 128.854 85.318 131.087L87.6346 133.33L90.4818 130.896L93.329 128.46L91.8133 125.768L90.2969 123.076L91.6717 120.665C92.8701 118.563 93.4679 118.179 96.33 117.677C98.9077 117.224 99.6723 116.808 99.8837 115.742C100.032 114.994 100.31 113.446 100.5 112.301C100.835 110.289 100.744 110.188 97.8076 109.333C94.9933 108.515 94.6992 108.227 93.8318 105.439L92.8953 102.429L94.9507 100.312C96.0818 99.1478 96.9957 97.919 96.9822 97.581C96.9692 97.2437 95.9836 95.8304 94.7923 94.4417L92.627 91.917L90.2555 93.3129C88.9512 94.0811 87.6035 94.7094 87.2616 94.7094C86.9191 94.7094 85.4816 93.9799 84.0667 93.0884C81.6939 91.5939 81.4942 91.2443 81.4942 88.5861C81.4942 86.1157 81.2861 85.6609 80.0399 85.4035C79.2404 85.2391 77.6135 84.9894 76.4248 84.8495C75.2116 84.7063 74.1703 84.903 74.0501 85.2984ZM133.7 94.6874C132.812 95.3847 131.721 96.8315 131.277 97.9016C130.818 99.0079 130.645 100.783 130.876 102.013C131.1 103.204 131.933 104.786 132.728 105.528C133.522 106.272 134.972 107.182 135.95 107.551C136.927 107.92 138.595 108.049 139.657 107.838C140.718 107.625 142.307 106.787 143.186 105.974C144.065 105.16 144.974 103.742 145.205 102.823C145.436 101.903 145.438 100.155 145.209 98.9369C144.96 97.6088 144.006 96.0614 142.826 95.0706C141.386 93.8605 140.119 93.4193 138.088 93.4193C136.311 93.4193 134.736 93.8747 133.7 94.6874ZM81.4942 98.1396C83.3273 99.0607 85.15 100.707 86.4227 102.59C87.5337 104.235 88.6403 106.892 88.8814 108.495C89.1218 110.098 89.0139 112.542 88.6403 113.926C88.2667 115.31 87.0923 117.64 86.029 119.104C84.9664 120.568 82.8567 122.413 81.341 123.205C79.3832 124.228 77.4629 124.646 74.7075 124.647C72.2067 124.648 70.0259 124.231 68.5671 123.472C67.3229 122.824 65.6223 121.675 64.7878 120.919C63.9534 120.162 62.6575 118.382 61.9083 116.963C60.9763 115.197 60.5374 113.161 60.5193 110.513C60.4973 107.405 60.849 106.035 62.3033 103.564C63.2993 101.871 65.2571 99.7309 66.6545 98.8079C68.0519 97.8855 70.1442 96.8934 71.305 96.6032C72.4653 96.3136 74.5782 96.2116 76.0002 96.3768C77.4222 96.5425 79.8945 97.3353 81.4942 98.1396ZM70.5999 99.2697C69.7628 99.6045 68.2019 100.5 67.1315 101.262C66.0605 102.022 64.6431 103.835 63.9812 105.288C63.32 106.742 62.7719 109.177 62.7641 110.7C62.7564 112.221 63.329 114.599 64.0368 115.984C64.7445 117.368 66.3727 119.299 67.6551 120.275C69.4015 121.605 70.9153 122.117 73.6901 122.317C76.5476 122.524 77.9968 122.278 80.0296 121.243C81.4787 120.505 83.2575 119.15 83.982 118.23C84.7059 117.312 85.6399 115.528 86.0575 114.266C86.4744 113.004 86.6715 110.695 86.4951 109.134C86.3192 107.573 85.4318 105.176 84.5237 103.806C83.5587 102.351 81.6946 100.747 80.0399 99.9477C78.4822 99.1956 76.0635 98.5983 74.6648 98.6202C73.2661 98.6428 71.4369 98.935 70.5999 99.2697ZM120.65 111.448C117.917 115.332 115.187 118.654 114.585 118.829C113.982 119.004 112.159 119.334 110.532 119.562L107.576 119.978L106.61 126.079C105.654 132.107 105.659 132.178 106.952 131.989C107.867 131.856 108.748 130.637 109.885 127.928C110.78 125.8 111.811 123.845 112.177 123.584C112.543 123.324 113.83 123.106 115.037 123.1C116.328 123.095 118.377 123.814 120.014 124.847C122.287 126.283 122.874 127.063 123.22 129.111C123.623 131.488 123.469 131.796 120.274 135.026C117.773 137.552 117.046 138.689 117.459 139.427C117.931 140.266 118.837 139.953 123.321 137.399C126.965 135.324 128.535 134.076 128.338 133.411C128.179 132.879 127.797 131.087 127.488 129.429C126.926 126.421 126.934 126.402 131.348 120.162C133.78 116.722 135.612 113.652 135.418 113.339C135.224 113.026 134.69 112.77 134.231 112.77C133.772 112.77 132.239 111.933 130.823 110.91C129.409 109.887 127.751 108 127.141 106.717C126.531 105.434 125.94 104.385 125.826 104.385C125.713 104.385 123.384 107.563 120.65 111.448Z" fill="white"/>
</g>
</svg>
