<svg width="161" height="104" viewBox="0 0 161 104" fill="none" xmlns="http://www.w3.org/2000/svg">
<path d="M38.216 0C9.84803 0 0.0560303 13.68 0.0560303 51.552C0.0560303 89.424 9.84803 103.104 38.216 103.104C66.728 103.104 76.52 89.424 76.52 51.552C76.52 13.68 66.728 0 38.216 0ZM38.072 17.424C51.176 17.424 54.92 24.48 54.92 51.552C54.92 78.624 51.176 85.68 38.072 85.68C25.4 85.68 21.656 78.624 21.656 51.552C21.656 24.48 25.4 17.424 38.072 17.424Z" fill="#E4E4E4"/>
<path d="M124.315 0.143998C114.235 0.143998 104.875 0.719999 90.9065 3.6L91.7705 20.16C104.875 19.008 111.931 18.864 121.723 18.864C130.651 18.864 135.115 19.584 135.259 25.488C135.403 32.544 129.211 41.76 117.547 53.856L93.2105 80.064C90.7625 82.656 90.0425 85.392 90.0425 88.992V101.232H160.459V81.504H130.651C125.899 81.504 120.715 81.648 115.963 82.512L141.451 56.016C154.555 42.048 157.579 34.704 157.579 23.184C157.579 4.32 144.619 0.143998 124.315 0.143998Z" fill="#E4E4E4"/>
</svg>
