<svg width="158" height="104" viewBox="0 0 158 104" fill="none" xmlns="http://www.w3.org/2000/svg">
<path d="M38.216 0C9.84803 0 0.0560303 13.68 0.0560303 51.552C0.0560303 89.424 9.84803 103.104 38.216 103.104C66.728 103.104 76.52 89.424 76.52 51.552C76.52 13.68 66.728 0 38.216 0ZM38.072 17.424C51.176 17.424 54.92 24.48 54.92 51.552C54.92 78.624 51.176 85.68 38.072 85.68C25.4 85.68 21.656 78.624 21.656 51.552C21.656 24.48 25.4 17.424 38.072 17.424Z" fill="#E4E4E4"/>
<path d="M122.587 0C112.363 0 101.995 0.863997 91.3385 2.59199L92.3465 18.432C99.4025 18.144 109.051 17.856 118.843 17.856C130.795 17.856 134.251 19.152 134.251 28.8C134.395 36.576 133.243 42.048 120.715 42.048H102.139V57.024H120.715C133.243 56.88 135.979 61.488 135.979 70.704C135.979 82.224 131.371 85.104 117.691 85.104C108.907 85.104 101.851 84.816 90.3305 84.096L89.4665 100.512C100.267 101.952 112.075 103.104 123.595 103.104C148.795 103.104 157.867 94.32 157.579 73.584C157.435 59.04 153.259 50.832 139.867 48.672V48.096C151.963 46.08 154.987 36.72 154.987 23.04C154.987 5.472 145.771 0 122.587 0Z" fill="#E4E4E4"/>
</svg>
