<svg width="132" height="104" viewBox="0 0 132 104" fill="none" xmlns="http://www.w3.org/2000/svg">
<path d="M38.216 0C9.84803 0 0.0560303 13.68 0.0560303 51.552C0.0560303 89.424 9.84803 103.104 38.216 103.104C66.728 103.104 76.52 89.424 76.52 51.552C76.52 13.68 66.728 0 38.216 0ZM38.072 17.424C51.176 17.424 54.92 24.48 54.92 51.552C54.92 78.624 51.176 85.68 38.072 85.68C25.4 85.68 21.656 78.624 21.656 51.552C21.656 24.48 25.4 17.424 38.072 17.424Z" fill="#E4E4E4"/>
<path d="M131.947 101.232V1.87199H110.059L85.1465 11.808L87.7385 26.496L110.923 20.448C110.203 24.192 110.059 27.648 110.059 31.248V101.232H131.947Z" fill="#E4E4E4"/>
</svg>
